<mxfile host="Electron" modified="2024-02-18T17:49:20.962Z" agent="Mozilla/5.0 (Windows NT 10.0; Win64; x64) AppleWebKit/537.36 (KHTML, like Gecko) draw.io/22.1.2 Chrome/114.0.5735.289 Electron/25.9.4 Safari/537.36" etag="qgl-AQQllhFKaYRe_wtU" version="22.1.2" type="device" pages="9">
  <diagram name="1.1" id="VTK72eb1rHknPvSx8htT">
    <mxGraphModel dx="492" dy="682" grid="0" gridSize="10" guides="1" tooltips="1" connect="1" arrows="1" fold="1" page="1" pageScale="1" pageWidth="827" pageHeight="1169" math="0" shadow="0">
      <root>
        <mxCell id="0" />
        <mxCell id="1" parent="0" />
        <mxCell id="fhfmKyvtJcfl5sCuy6nR-3" value="" style="group;fontSize=14;" parent="1" vertex="1" connectable="0">
          <mxGeometry x="80" y="40" width="80" height="40" as="geometry" />
        </mxCell>
        <mxCell id="fhfmKyvtJcfl5sCuy6nR-4" style="edgeStyle=orthogonalEdgeStyle;rounded=0;orthogonalLoop=1;jettySize=auto;html=1;fontSize=14;" parent="fhfmKyvtJcfl5sCuy6nR-3" source="fhfmKyvtJcfl5sCuy6nR-1" edge="1">
          <mxGeometry relative="1" as="geometry">
            <mxPoint x="20.000000000000057" y="80" as="targetPoint" />
          </mxGeometry>
        </mxCell>
        <mxCell id="fhfmKyvtJcfl5sCuy6nR-1" value="" style="verticalLabelPosition=bottom;verticalAlign=top;html=1;shape=mxgraph.basic.rect;fillColor2=none;strokeWidth=1;size=20;indent=5;fontSize=14;" parent="fhfmKyvtJcfl5sCuy6nR-3" vertex="1">
          <mxGeometry width="40" height="40" as="geometry" />
        </mxCell>
        <mxCell id="fhfmKyvtJcfl5sCuy6nR-5" style="edgeStyle=orthogonalEdgeStyle;rounded=0;orthogonalLoop=1;jettySize=auto;html=1;fontSize=14;" parent="fhfmKyvtJcfl5sCuy6nR-3" source="fhfmKyvtJcfl5sCuy6nR-2" edge="1">
          <mxGeometry relative="1" as="geometry">
            <mxPoint x="120" y="20" as="targetPoint" />
          </mxGeometry>
        </mxCell>
        <mxCell id="fhfmKyvtJcfl5sCuy6nR-2" value="" style="verticalLabelPosition=bottom;verticalAlign=top;html=1;shape=mxgraph.basic.rect;fillColor2=none;strokeWidth=1;size=20;indent=5;fontSize=14;" parent="fhfmKyvtJcfl5sCuy6nR-3" vertex="1">
          <mxGeometry x="40" width="40" height="40" as="geometry" />
        </mxCell>
        <mxCell id="fhfmKyvtJcfl5sCuy6nR-6" value="" style="group;fontSize=14;" parent="1" vertex="1" connectable="0">
          <mxGeometry x="200" y="40" width="80" height="40" as="geometry" />
        </mxCell>
        <mxCell id="fhfmKyvtJcfl5sCuy6nR-7" style="edgeStyle=orthogonalEdgeStyle;rounded=0;orthogonalLoop=1;jettySize=auto;html=1;fontSize=14;" parent="fhfmKyvtJcfl5sCuy6nR-6" source="fhfmKyvtJcfl5sCuy6nR-8" edge="1">
          <mxGeometry relative="1" as="geometry">
            <mxPoint x="20.000000000000057" y="80" as="targetPoint" />
          </mxGeometry>
        </mxCell>
        <mxCell id="fhfmKyvtJcfl5sCuy6nR-8" value="" style="verticalLabelPosition=bottom;verticalAlign=top;html=1;shape=mxgraph.basic.rect;fillColor2=none;strokeWidth=1;size=20;indent=5;fontSize=14;" parent="fhfmKyvtJcfl5sCuy6nR-6" vertex="1">
          <mxGeometry width="40" height="40" as="geometry" />
        </mxCell>
        <mxCell id="fhfmKyvtJcfl5sCuy6nR-9" style="edgeStyle=orthogonalEdgeStyle;rounded=0;orthogonalLoop=1;jettySize=auto;html=1;fontSize=14;" parent="fhfmKyvtJcfl5sCuy6nR-6" source="fhfmKyvtJcfl5sCuy6nR-10" edge="1">
          <mxGeometry relative="1" as="geometry">
            <mxPoint x="120" y="20" as="targetPoint" />
          </mxGeometry>
        </mxCell>
        <mxCell id="fhfmKyvtJcfl5sCuy6nR-10" value="" style="verticalLabelPosition=bottom;verticalAlign=top;html=1;shape=mxgraph.basic.rect;fillColor2=none;strokeWidth=1;size=20;indent=5;fontSize=14;" parent="fhfmKyvtJcfl5sCuy6nR-6" vertex="1">
          <mxGeometry x="40" width="40" height="40" as="geometry" />
        </mxCell>
        <mxCell id="fhfmKyvtJcfl5sCuy6nR-11" value="" style="group;fontSize=14;" parent="1" vertex="1" connectable="0">
          <mxGeometry x="320" y="40" width="80" height="40" as="geometry" />
        </mxCell>
        <mxCell id="fhfmKyvtJcfl5sCuy6nR-12" style="edgeStyle=orthogonalEdgeStyle;rounded=0;orthogonalLoop=1;jettySize=auto;html=1;fontSize=14;" parent="fhfmKyvtJcfl5sCuy6nR-11" source="fhfmKyvtJcfl5sCuy6nR-13" edge="1">
          <mxGeometry relative="1" as="geometry">
            <mxPoint x="20.000000000000057" y="80" as="targetPoint" />
          </mxGeometry>
        </mxCell>
        <mxCell id="fhfmKyvtJcfl5sCuy6nR-13" value="" style="verticalLabelPosition=bottom;verticalAlign=top;html=1;shape=mxgraph.basic.rect;fillColor2=none;strokeWidth=1;size=20;indent=5;fontSize=14;" parent="fhfmKyvtJcfl5sCuy6nR-11" vertex="1">
          <mxGeometry width="40" height="40" as="geometry" />
        </mxCell>
        <mxCell id="fhfmKyvtJcfl5sCuy6nR-14" style="edgeStyle=orthogonalEdgeStyle;rounded=0;orthogonalLoop=1;jettySize=auto;html=1;fontSize=14;" parent="fhfmKyvtJcfl5sCuy6nR-11" source="fhfmKyvtJcfl5sCuy6nR-15" edge="1">
          <mxGeometry relative="1" as="geometry">
            <mxPoint x="120" y="20" as="targetPoint" />
          </mxGeometry>
        </mxCell>
        <mxCell id="fhfmKyvtJcfl5sCuy6nR-15" value="" style="verticalLabelPosition=bottom;verticalAlign=top;html=1;shape=mxgraph.basic.rect;fillColor2=none;strokeWidth=1;size=20;indent=5;fontSize=14;" parent="fhfmKyvtJcfl5sCuy6nR-11" vertex="1">
          <mxGeometry x="40" width="40" height="40" as="geometry" />
        </mxCell>
        <mxCell id="fhfmKyvtJcfl5sCuy6nR-16" value="open" style="text;html=1;strokeColor=none;fillColor=none;align=center;verticalAlign=middle;whiteSpace=wrap;rounded=0;fontSize=14;" parent="1" vertex="1">
          <mxGeometry x="70" y="120" width="60" height="30" as="geometry" />
        </mxCell>
        <mxCell id="fhfmKyvtJcfl5sCuy6nR-17" value="close" style="text;html=1;strokeColor=none;fillColor=none;align=center;verticalAlign=middle;whiteSpace=wrap;rounded=0;fontSize=14;" parent="1" vertex="1">
          <mxGeometry x="190" y="120" width="60" height="30" as="geometry" />
        </mxCell>
        <mxCell id="fhfmKyvtJcfl5sCuy6nR-18" value="halph" style="text;html=1;strokeColor=none;fillColor=none;align=center;verticalAlign=middle;whiteSpace=wrap;rounded=0;fontSize=14;" parent="1" vertex="1">
          <mxGeometry x="310" y="120" width="60" height="30" as="geometry" />
        </mxCell>
        <mxCell id="fhfmKyvtJcfl5sCuy6nR-19" value="Nil" style="text;html=1;strokeColor=none;fillColor=none;align=left;verticalAlign=middle;whiteSpace=wrap;rounded=0;fontSize=14;" parent="1" vertex="1">
          <mxGeometry x="440" y="45" width="60" height="30" as="geometry" />
        </mxCell>
      </root>
    </mxGraphModel>
  </diagram>
  <diagram id="s4-vfhmxxTG6GxPEtEHb" name="1.2">
    <mxGraphModel dx="2238" dy="1422" grid="0" gridSize="10" guides="1" tooltips="1" connect="1" arrows="1" fold="1" page="1" pageScale="1" pageWidth="827" pageHeight="1169" math="0" shadow="0">
      <root>
        <mxCell id="0" />
        <mxCell id="1" parent="0" />
        <mxCell id="gVVZr0oiz2oekJRKgtgU-1" value="" style="group;fontSize=14;" vertex="1" connectable="0" parent="1">
          <mxGeometry x="50" y="40" width="80" height="40" as="geometry" />
        </mxCell>
        <mxCell id="gVVZr0oiz2oekJRKgtgU-2" style="edgeStyle=orthogonalEdgeStyle;rounded=0;orthogonalLoop=1;jettySize=auto;html=1;fontSize=14;" edge="1" parent="gVVZr0oiz2oekJRKgtgU-1" source="gVVZr0oiz2oekJRKgtgU-3">
          <mxGeometry relative="1" as="geometry">
            <mxPoint x="20.000000000000057" y="80" as="targetPoint" />
          </mxGeometry>
        </mxCell>
        <mxCell id="gVVZr0oiz2oekJRKgtgU-3" value="" style="verticalLabelPosition=bottom;verticalAlign=top;html=1;shape=mxgraph.basic.rect;fillColor2=none;strokeWidth=1;size=20;indent=5;fontSize=14;" vertex="1" parent="gVVZr0oiz2oekJRKgtgU-1">
          <mxGeometry width="40" height="40" as="geometry" />
        </mxCell>
        <mxCell id="gVVZr0oiz2oekJRKgtgU-4" style="edgeStyle=orthogonalEdgeStyle;rounded=0;orthogonalLoop=1;jettySize=auto;html=1;fontSize=14;" edge="1" parent="gVVZr0oiz2oekJRKgtgU-1" source="gVVZr0oiz2oekJRKgtgU-5">
          <mxGeometry relative="1" as="geometry">
            <mxPoint x="160" y="20" as="targetPoint" />
          </mxGeometry>
        </mxCell>
        <mxCell id="gVVZr0oiz2oekJRKgtgU-5" value="" style="verticalLabelPosition=bottom;verticalAlign=top;html=1;shape=mxgraph.basic.rect;fillColor2=none;strokeWidth=1;size=20;indent=5;fontSize=14;" vertex="1" parent="gVVZr0oiz2oekJRKgtgU-1">
          <mxGeometry x="40" width="40" height="40" as="geometry" />
        </mxCell>
        <mxCell id="gVVZr0oiz2oekJRKgtgU-6" value="open1" style="text;html=1;strokeColor=none;fillColor=none;align=center;verticalAlign=middle;whiteSpace=wrap;rounded=0;fontSize=14;" vertex="1" parent="1">
          <mxGeometry x="40" y="200" width="60" height="30" as="geometry" />
        </mxCell>
        <mxCell id="gVVZr0oiz2oekJRKgtgU-7" value="" style="group;fontSize=14;" vertex="1" connectable="0" parent="1">
          <mxGeometry x="50" y="120" width="80" height="40" as="geometry" />
        </mxCell>
        <mxCell id="gVVZr0oiz2oekJRKgtgU-8" style="edgeStyle=orthogonalEdgeStyle;rounded=0;orthogonalLoop=1;jettySize=auto;html=1;fontSize=14;" edge="1" parent="gVVZr0oiz2oekJRKgtgU-7" source="gVVZr0oiz2oekJRKgtgU-9">
          <mxGeometry relative="1" as="geometry">
            <mxPoint x="20.000000000000057" y="80" as="targetPoint" />
          </mxGeometry>
        </mxCell>
        <mxCell id="gVVZr0oiz2oekJRKgtgU-9" value="" style="verticalLabelPosition=bottom;verticalAlign=top;html=1;shape=mxgraph.basic.rect;fillColor2=none;strokeWidth=1;size=20;indent=5;fontSize=14;" vertex="1" parent="gVVZr0oiz2oekJRKgtgU-7">
          <mxGeometry width="40" height="40" as="geometry" />
        </mxCell>
        <mxCell id="gVVZr0oiz2oekJRKgtgU-10" style="edgeStyle=orthogonalEdgeStyle;rounded=0;orthogonalLoop=1;jettySize=auto;html=1;fontSize=14;" edge="1" parent="gVVZr0oiz2oekJRKgtgU-7" source="gVVZr0oiz2oekJRKgtgU-11">
          <mxGeometry relative="1" as="geometry">
            <mxPoint x="120" y="20" as="targetPoint" />
          </mxGeometry>
        </mxCell>
        <mxCell id="gVVZr0oiz2oekJRKgtgU-11" value="" style="verticalLabelPosition=bottom;verticalAlign=top;html=1;shape=mxgraph.basic.rect;fillColor2=none;strokeWidth=1;size=20;indent=5;fontSize=14;" vertex="1" parent="gVVZr0oiz2oekJRKgtgU-7">
          <mxGeometry x="40" width="40" height="40" as="geometry" />
        </mxCell>
        <mxCell id="gVVZr0oiz2oekJRKgtgU-12" value="Nil" style="text;html=1;strokeColor=none;fillColor=none;align=left;verticalAlign=middle;whiteSpace=wrap;rounded=0;fontSize=14;" vertex="1" parent="1">
          <mxGeometry x="170" y="125" width="60" height="30" as="geometry" />
        </mxCell>
        <mxCell id="gVVZr0oiz2oekJRKgtgU-13" value="" style="group;fontSize=14;" vertex="1" connectable="0" parent="1">
          <mxGeometry x="210" y="40" width="80" height="40" as="geometry" />
        </mxCell>
        <mxCell id="gVVZr0oiz2oekJRKgtgU-14" style="edgeStyle=orthogonalEdgeStyle;rounded=0;orthogonalLoop=1;jettySize=auto;html=1;fontSize=14;" edge="1" parent="gVVZr0oiz2oekJRKgtgU-13" source="gVVZr0oiz2oekJRKgtgU-15">
          <mxGeometry relative="1" as="geometry">
            <mxPoint x="20.000000000000057" y="80" as="targetPoint" />
          </mxGeometry>
        </mxCell>
        <mxCell id="gVVZr0oiz2oekJRKgtgU-15" value="" style="verticalLabelPosition=bottom;verticalAlign=top;html=1;shape=mxgraph.basic.rect;fillColor2=none;strokeWidth=1;size=20;indent=5;fontSize=14;" vertex="1" parent="gVVZr0oiz2oekJRKgtgU-13">
          <mxGeometry width="40" height="40" as="geometry" />
        </mxCell>
        <mxCell id="gVVZr0oiz2oekJRKgtgU-16" style="edgeStyle=orthogonalEdgeStyle;rounded=0;orthogonalLoop=1;jettySize=auto;html=1;fontSize=14;" edge="1" parent="gVVZr0oiz2oekJRKgtgU-13" source="gVVZr0oiz2oekJRKgtgU-17">
          <mxGeometry relative="1" as="geometry">
            <mxPoint x="160" y="20" as="targetPoint" />
          </mxGeometry>
        </mxCell>
        <mxCell id="gVVZr0oiz2oekJRKgtgU-17" value="" style="verticalLabelPosition=bottom;verticalAlign=top;html=1;shape=mxgraph.basic.rect;fillColor2=none;strokeWidth=1;size=20;indent=5;fontSize=14;" vertex="1" parent="gVVZr0oiz2oekJRKgtgU-13">
          <mxGeometry x="40" width="40" height="40" as="geometry" />
        </mxCell>
        <mxCell id="gVVZr0oiz2oekJRKgtgU-18" value="close2" style="text;html=1;strokeColor=none;fillColor=none;align=center;verticalAlign=middle;whiteSpace=wrap;rounded=0;fontSize=14;" vertex="1" parent="1">
          <mxGeometry x="200" y="200" width="60" height="30" as="geometry" />
        </mxCell>
        <mxCell id="gVVZr0oiz2oekJRKgtgU-19" value="" style="group;fontSize=14;" vertex="1" connectable="0" parent="1">
          <mxGeometry x="210" y="120" width="80" height="40" as="geometry" />
        </mxCell>
        <mxCell id="gVVZr0oiz2oekJRKgtgU-20" style="edgeStyle=orthogonalEdgeStyle;rounded=0;orthogonalLoop=1;jettySize=auto;html=1;fontSize=14;" edge="1" parent="gVVZr0oiz2oekJRKgtgU-19" source="gVVZr0oiz2oekJRKgtgU-21">
          <mxGeometry relative="1" as="geometry">
            <mxPoint x="20.000000000000057" y="80" as="targetPoint" />
          </mxGeometry>
        </mxCell>
        <mxCell id="gVVZr0oiz2oekJRKgtgU-21" value="" style="verticalLabelPosition=bottom;verticalAlign=top;html=1;shape=mxgraph.basic.rect;fillColor2=none;strokeWidth=1;size=20;indent=5;fontSize=14;" vertex="1" parent="gVVZr0oiz2oekJRKgtgU-19">
          <mxGeometry width="40" height="40" as="geometry" />
        </mxCell>
        <mxCell id="gVVZr0oiz2oekJRKgtgU-22" style="edgeStyle=orthogonalEdgeStyle;rounded=0;orthogonalLoop=1;jettySize=auto;html=1;fontSize=14;" edge="1" parent="gVVZr0oiz2oekJRKgtgU-19" source="gVVZr0oiz2oekJRKgtgU-23">
          <mxGeometry relative="1" as="geometry">
            <mxPoint x="120" y="20" as="targetPoint" />
          </mxGeometry>
        </mxCell>
        <mxCell id="gVVZr0oiz2oekJRKgtgU-23" value="" style="verticalLabelPosition=bottom;verticalAlign=top;html=1;shape=mxgraph.basic.rect;fillColor2=none;strokeWidth=1;size=20;indent=5;fontSize=14;" vertex="1" parent="gVVZr0oiz2oekJRKgtgU-19">
          <mxGeometry x="40" width="40" height="40" as="geometry" />
        </mxCell>
        <mxCell id="gVVZr0oiz2oekJRKgtgU-24" value="Nil" style="text;html=1;strokeColor=none;fillColor=none;align=left;verticalAlign=middle;whiteSpace=wrap;rounded=0;fontSize=14;" vertex="1" parent="1">
          <mxGeometry x="330" y="125" width="60" height="30" as="geometry" />
        </mxCell>
        <mxCell id="gVVZr0oiz2oekJRKgtgU-25" value="" style="group;fontSize=14;" vertex="1" connectable="0" parent="1">
          <mxGeometry x="370" y="40" width="80" height="40" as="geometry" />
        </mxCell>
        <mxCell id="gVVZr0oiz2oekJRKgtgU-26" style="edgeStyle=orthogonalEdgeStyle;rounded=0;orthogonalLoop=1;jettySize=auto;html=1;fontSize=14;" edge="1" parent="gVVZr0oiz2oekJRKgtgU-25" source="gVVZr0oiz2oekJRKgtgU-27">
          <mxGeometry relative="1" as="geometry">
            <mxPoint x="20.000000000000057" y="80" as="targetPoint" />
          </mxGeometry>
        </mxCell>
        <mxCell id="gVVZr0oiz2oekJRKgtgU-27" value="" style="verticalLabelPosition=bottom;verticalAlign=top;html=1;shape=mxgraph.basic.rect;fillColor2=none;strokeWidth=1;size=20;indent=5;fontSize=14;" vertex="1" parent="gVVZr0oiz2oekJRKgtgU-25">
          <mxGeometry width="40" height="40" as="geometry" />
        </mxCell>
        <mxCell id="gVVZr0oiz2oekJRKgtgU-28" style="edgeStyle=orthogonalEdgeStyle;rounded=0;orthogonalLoop=1;jettySize=auto;html=1;fontSize=14;" edge="1" parent="gVVZr0oiz2oekJRKgtgU-25" source="gVVZr0oiz2oekJRKgtgU-29">
          <mxGeometry relative="1" as="geometry">
            <mxPoint x="160" y="20" as="targetPoint" />
          </mxGeometry>
        </mxCell>
        <mxCell id="gVVZr0oiz2oekJRKgtgU-29" value="" style="verticalLabelPosition=bottom;verticalAlign=top;html=1;shape=mxgraph.basic.rect;fillColor2=none;strokeWidth=1;size=20;indent=5;fontSize=14;" vertex="1" parent="gVVZr0oiz2oekJRKgtgU-25">
          <mxGeometry x="40" width="40" height="40" as="geometry" />
        </mxCell>
        <mxCell id="gVVZr0oiz2oekJRKgtgU-30" value="halph3" style="text;html=1;strokeColor=none;fillColor=none;align=center;verticalAlign=middle;whiteSpace=wrap;rounded=0;fontSize=14;" vertex="1" parent="1">
          <mxGeometry x="360" y="200" width="60" height="30" as="geometry" />
        </mxCell>
        <mxCell id="gVVZr0oiz2oekJRKgtgU-31" value="" style="group;fontSize=14;" vertex="1" connectable="0" parent="1">
          <mxGeometry x="370" y="120" width="80" height="40" as="geometry" />
        </mxCell>
        <mxCell id="gVVZr0oiz2oekJRKgtgU-32" style="edgeStyle=orthogonalEdgeStyle;rounded=0;orthogonalLoop=1;jettySize=auto;html=1;fontSize=14;" edge="1" parent="gVVZr0oiz2oekJRKgtgU-31" source="gVVZr0oiz2oekJRKgtgU-33">
          <mxGeometry relative="1" as="geometry">
            <mxPoint x="20.000000000000057" y="80" as="targetPoint" />
          </mxGeometry>
        </mxCell>
        <mxCell id="gVVZr0oiz2oekJRKgtgU-33" value="" style="verticalLabelPosition=bottom;verticalAlign=top;html=1;shape=mxgraph.basic.rect;fillColor2=none;strokeWidth=1;size=20;indent=5;fontSize=14;" vertex="1" parent="gVVZr0oiz2oekJRKgtgU-31">
          <mxGeometry width="40" height="40" as="geometry" />
        </mxCell>
        <mxCell id="gVVZr0oiz2oekJRKgtgU-34" style="edgeStyle=orthogonalEdgeStyle;rounded=0;orthogonalLoop=1;jettySize=auto;html=1;fontSize=14;" edge="1" parent="gVVZr0oiz2oekJRKgtgU-31" source="gVVZr0oiz2oekJRKgtgU-35">
          <mxGeometry relative="1" as="geometry">
            <mxPoint x="120" y="20" as="targetPoint" />
          </mxGeometry>
        </mxCell>
        <mxCell id="gVVZr0oiz2oekJRKgtgU-35" value="" style="verticalLabelPosition=bottom;verticalAlign=top;html=1;shape=mxgraph.basic.rect;fillColor2=none;strokeWidth=1;size=20;indent=5;fontSize=14;" vertex="1" parent="gVVZr0oiz2oekJRKgtgU-31">
          <mxGeometry x="40" width="40" height="40" as="geometry" />
        </mxCell>
        <mxCell id="gVVZr0oiz2oekJRKgtgU-36" value="Nil" style="text;html=1;strokeColor=none;fillColor=none;align=left;verticalAlign=middle;whiteSpace=wrap;rounded=0;fontSize=14;" vertex="1" parent="1">
          <mxGeometry x="490" y="125" width="60" height="30" as="geometry" />
        </mxCell>
        <mxCell id="gVVZr0oiz2oekJRKgtgU-37" value="Nil" style="text;html=1;strokeColor=none;fillColor=none;align=left;verticalAlign=middle;whiteSpace=wrap;rounded=0;fontSize=14;" vertex="1" parent="1">
          <mxGeometry x="530" y="45" width="60" height="30" as="geometry" />
        </mxCell>
      </root>
    </mxGraphModel>
  </diagram>
  <diagram id="o-_K6zzQOhMCrSAGoFSn" name="1.3">
    <mxGraphModel dx="3197" dy="2031" grid="0" gridSize="10" guides="1" tooltips="1" connect="1" arrows="1" fold="1" page="1" pageScale="1" pageWidth="1169" pageHeight="827" math="0" shadow="0">
      <root>
        <mxCell id="0" />
        <mxCell id="1" parent="0" />
        <mxCell id="eYuFpCxLC6xQZ-BLc7D8-1" value="" style="group;fontSize=14;" vertex="1" connectable="0" parent="1">
          <mxGeometry x="50" y="50" width="80" height="40" as="geometry" />
        </mxCell>
        <mxCell id="eYuFpCxLC6xQZ-BLc7D8-2" style="edgeStyle=orthogonalEdgeStyle;rounded=0;orthogonalLoop=1;jettySize=auto;html=1;fontSize=14;" edge="1" parent="eYuFpCxLC6xQZ-BLc7D8-1" source="eYuFpCxLC6xQZ-BLc7D8-3">
          <mxGeometry relative="1" as="geometry">
            <mxPoint x="20.000000000000057" y="80" as="targetPoint" />
          </mxGeometry>
        </mxCell>
        <mxCell id="eYuFpCxLC6xQZ-BLc7D8-3" value="" style="verticalLabelPosition=bottom;verticalAlign=top;html=1;shape=mxgraph.basic.rect;fillColor2=none;strokeWidth=1;size=20;indent=5;fontSize=14;" vertex="1" parent="eYuFpCxLC6xQZ-BLc7D8-1">
          <mxGeometry width="40" height="40" as="geometry" />
        </mxCell>
        <mxCell id="eYuFpCxLC6xQZ-BLc7D8-4" style="edgeStyle=orthogonalEdgeStyle;rounded=0;orthogonalLoop=1;jettySize=auto;html=1;fontSize=14;" edge="1" parent="eYuFpCxLC6xQZ-BLc7D8-1" source="eYuFpCxLC6xQZ-BLc7D8-5">
          <mxGeometry relative="1" as="geometry">
            <mxPoint x="160" y="20" as="targetPoint" />
          </mxGeometry>
        </mxCell>
        <mxCell id="eYuFpCxLC6xQZ-BLc7D8-5" value="" style="verticalLabelPosition=bottom;verticalAlign=top;html=1;shape=mxgraph.basic.rect;fillColor2=none;strokeWidth=1;size=20;indent=5;fontSize=14;" vertex="1" parent="eYuFpCxLC6xQZ-BLc7D8-1">
          <mxGeometry x="40" width="40" height="40" as="geometry" />
        </mxCell>
        <mxCell id="eYuFpCxLC6xQZ-BLc7D8-6" value="" style="group;fontSize=14;" vertex="1" connectable="0" parent="1">
          <mxGeometry x="50" y="130" width="80" height="40" as="geometry" />
        </mxCell>
        <mxCell id="eYuFpCxLC6xQZ-BLc7D8-7" style="edgeStyle=orthogonalEdgeStyle;rounded=0;orthogonalLoop=1;jettySize=auto;html=1;fontSize=14;" edge="1" parent="eYuFpCxLC6xQZ-BLc7D8-6" source="eYuFpCxLC6xQZ-BLc7D8-8">
          <mxGeometry relative="1" as="geometry">
            <mxPoint x="20.000000000000057" y="80" as="targetPoint" />
          </mxGeometry>
        </mxCell>
        <mxCell id="eYuFpCxLC6xQZ-BLc7D8-8" value="" style="verticalLabelPosition=bottom;verticalAlign=top;html=1;shape=mxgraph.basic.rect;fillColor2=none;strokeWidth=1;size=20;indent=5;fontSize=14;" vertex="1" parent="eYuFpCxLC6xQZ-BLc7D8-6">
          <mxGeometry width="40" height="40" as="geometry" />
        </mxCell>
        <mxCell id="eYuFpCxLC6xQZ-BLc7D8-9" style="edgeStyle=orthogonalEdgeStyle;rounded=0;orthogonalLoop=1;jettySize=auto;html=1;fontSize=14;" edge="1" parent="eYuFpCxLC6xQZ-BLc7D8-6" source="eYuFpCxLC6xQZ-BLc7D8-10">
          <mxGeometry relative="1" as="geometry">
            <mxPoint x="120" y="20" as="targetPoint" />
          </mxGeometry>
        </mxCell>
        <mxCell id="eYuFpCxLC6xQZ-BLc7D8-10" value="" style="verticalLabelPosition=bottom;verticalAlign=top;html=1;shape=mxgraph.basic.rect;fillColor2=none;strokeWidth=1;size=20;indent=5;fontSize=14;" vertex="1" parent="eYuFpCxLC6xQZ-BLc7D8-6">
          <mxGeometry x="40" width="40" height="40" as="geometry" />
        </mxCell>
        <mxCell id="eYuFpCxLC6xQZ-BLc7D8-11" value="one" style="text;html=1;strokeColor=none;fillColor=none;align=center;verticalAlign=middle;whiteSpace=wrap;rounded=0;fontSize=14;" vertex="1" parent="1">
          <mxGeometry x="40" y="210" width="60" height="30" as="geometry" />
        </mxCell>
        <mxCell id="eYuFpCxLC6xQZ-BLc7D8-12" value="Nil" style="text;html=1;strokeColor=none;fillColor=none;align=left;verticalAlign=middle;whiteSpace=wrap;rounded=0;fontSize=14;" vertex="1" parent="1">
          <mxGeometry x="170" y="135" width="40" height="30" as="geometry" />
        </mxCell>
        <mxCell id="eYuFpCxLC6xQZ-BLc7D8-13" value="" style="group;fontSize=14;" vertex="1" connectable="0" parent="1">
          <mxGeometry x="210" y="50" width="80" height="40" as="geometry" />
        </mxCell>
        <mxCell id="eYuFpCxLC6xQZ-BLc7D8-14" style="edgeStyle=orthogonalEdgeStyle;rounded=0;orthogonalLoop=1;jettySize=auto;html=1;fontSize=14;" edge="1" parent="eYuFpCxLC6xQZ-BLc7D8-13" source="eYuFpCxLC6xQZ-BLc7D8-15">
          <mxGeometry relative="1" as="geometry">
            <mxPoint x="20.000000000000057" y="80" as="targetPoint" />
          </mxGeometry>
        </mxCell>
        <mxCell id="eYuFpCxLC6xQZ-BLc7D8-15" value="" style="verticalLabelPosition=bottom;verticalAlign=top;html=1;shape=mxgraph.basic.rect;fillColor2=none;strokeWidth=1;size=20;indent=5;fontSize=14;" vertex="1" parent="eYuFpCxLC6xQZ-BLc7D8-13">
          <mxGeometry width="40" height="40" as="geometry" />
        </mxCell>
        <mxCell id="eYuFpCxLC6xQZ-BLc7D8-16" style="edgeStyle=orthogonalEdgeStyle;rounded=0;orthogonalLoop=1;jettySize=auto;html=1;fontSize=14;" edge="1" parent="eYuFpCxLC6xQZ-BLc7D8-13" source="eYuFpCxLC6xQZ-BLc7D8-17">
          <mxGeometry relative="1" as="geometry">
            <mxPoint x="120" y="20" as="targetPoint" />
          </mxGeometry>
        </mxCell>
        <mxCell id="eYuFpCxLC6xQZ-BLc7D8-17" value="" style="verticalLabelPosition=bottom;verticalAlign=top;html=1;shape=mxgraph.basic.rect;fillColor2=none;strokeWidth=1;size=20;indent=5;fontSize=14;" vertex="1" parent="eYuFpCxLC6xQZ-BLc7D8-13">
          <mxGeometry x="40" width="40" height="40" as="geometry" />
        </mxCell>
        <mxCell id="eYuFpCxLC6xQZ-BLc7D8-18" value="for" style="text;html=1;strokeColor=none;fillColor=none;align=center;verticalAlign=middle;whiteSpace=wrap;rounded=0;fontSize=14;" vertex="1" parent="1">
          <mxGeometry x="200" y="130" width="60" height="30" as="geometry" />
        </mxCell>
        <mxCell id="eYuFpCxLC6xQZ-BLc7D8-19" value="" style="group;fontSize=14;" vertex="1" connectable="0" parent="1">
          <mxGeometry x="330" y="50" width="80" height="40" as="geometry" />
        </mxCell>
        <mxCell id="eYuFpCxLC6xQZ-BLc7D8-20" style="edgeStyle=orthogonalEdgeStyle;rounded=0;orthogonalLoop=1;jettySize=auto;html=1;fontSize=14;" edge="1" parent="eYuFpCxLC6xQZ-BLc7D8-19" source="eYuFpCxLC6xQZ-BLc7D8-21">
          <mxGeometry relative="1" as="geometry">
            <mxPoint x="20.000000000000057" y="80" as="targetPoint" />
          </mxGeometry>
        </mxCell>
        <mxCell id="eYuFpCxLC6xQZ-BLc7D8-21" value="" style="verticalLabelPosition=bottom;verticalAlign=top;html=1;shape=mxgraph.basic.rect;fillColor2=none;strokeWidth=1;size=20;indent=5;fontSize=14;" vertex="1" parent="eYuFpCxLC6xQZ-BLc7D8-19">
          <mxGeometry width="40" height="40" as="geometry" />
        </mxCell>
        <mxCell id="eYuFpCxLC6xQZ-BLc7D8-22" style="edgeStyle=orthogonalEdgeStyle;rounded=0;orthogonalLoop=1;jettySize=auto;html=1;fontSize=14;" edge="1" parent="eYuFpCxLC6xQZ-BLc7D8-19" source="eYuFpCxLC6xQZ-BLc7D8-23">
          <mxGeometry relative="1" as="geometry">
            <mxPoint x="120" y="20" as="targetPoint" />
          </mxGeometry>
        </mxCell>
        <mxCell id="eYuFpCxLC6xQZ-BLc7D8-23" value="" style="verticalLabelPosition=bottom;verticalAlign=top;html=1;shape=mxgraph.basic.rect;fillColor2=none;strokeWidth=1;size=20;indent=5;fontSize=14;" vertex="1" parent="eYuFpCxLC6xQZ-BLc7D8-19">
          <mxGeometry x="40" width="40" height="40" as="geometry" />
        </mxCell>
        <mxCell id="eYuFpCxLC6xQZ-BLc7D8-24" value="all" style="text;html=1;strokeColor=none;fillColor=none;align=center;verticalAlign=middle;whiteSpace=wrap;rounded=0;fontSize=14;" vertex="1" parent="1">
          <mxGeometry x="320" y="130" width="60" height="30" as="geometry" />
        </mxCell>
        <mxCell id="eYuFpCxLC6xQZ-BLc7D8-25" value="" style="group;fontSize=14;" vertex="1" connectable="0" parent="1">
          <mxGeometry x="450" y="50" width="80" height="40" as="geometry" />
        </mxCell>
        <mxCell id="eYuFpCxLC6xQZ-BLc7D8-26" style="edgeStyle=orthogonalEdgeStyle;rounded=0;orthogonalLoop=1;jettySize=auto;html=1;fontSize=14;" edge="1" parent="eYuFpCxLC6xQZ-BLc7D8-25" source="eYuFpCxLC6xQZ-BLc7D8-27">
          <mxGeometry relative="1" as="geometry">
            <mxPoint x="20.000000000000057" y="80" as="targetPoint" />
          </mxGeometry>
        </mxCell>
        <mxCell id="eYuFpCxLC6xQZ-BLc7D8-27" value="" style="verticalLabelPosition=bottom;verticalAlign=top;html=1;shape=mxgraph.basic.rect;fillColor2=none;strokeWidth=1;size=20;indent=5;fontSize=14;" vertex="1" parent="eYuFpCxLC6xQZ-BLc7D8-25">
          <mxGeometry width="40" height="40" as="geometry" />
        </mxCell>
        <mxCell id="eYuFpCxLC6xQZ-BLc7D8-28" style="edgeStyle=orthogonalEdgeStyle;rounded=0;orthogonalLoop=1;jettySize=auto;html=1;fontSize=14;" edge="1" parent="eYuFpCxLC6xQZ-BLc7D8-25" source="eYuFpCxLC6xQZ-BLc7D8-29">
          <mxGeometry relative="1" as="geometry">
            <mxPoint x="120" y="20" as="targetPoint" />
          </mxGeometry>
        </mxCell>
        <mxCell id="eYuFpCxLC6xQZ-BLc7D8-29" value="" style="verticalLabelPosition=bottom;verticalAlign=top;html=1;shape=mxgraph.basic.rect;fillColor2=none;strokeWidth=1;size=20;indent=5;fontSize=14;" vertex="1" parent="eYuFpCxLC6xQZ-BLc7D8-25">
          <mxGeometry x="40" width="40" height="40" as="geometry" />
        </mxCell>
        <mxCell id="eYuFpCxLC6xQZ-BLc7D8-30" value="" style="group;fontSize=14;" vertex="1" connectable="0" parent="1">
          <mxGeometry x="450" y="130" width="80" height="40" as="geometry" />
        </mxCell>
        <mxCell id="eYuFpCxLC6xQZ-BLc7D8-31" style="edgeStyle=orthogonalEdgeStyle;rounded=0;orthogonalLoop=1;jettySize=auto;html=1;fontSize=14;" edge="1" parent="eYuFpCxLC6xQZ-BLc7D8-30" source="eYuFpCxLC6xQZ-BLc7D8-32">
          <mxGeometry relative="1" as="geometry">
            <mxPoint x="20.000000000000057" y="80" as="targetPoint" />
          </mxGeometry>
        </mxCell>
        <mxCell id="eYuFpCxLC6xQZ-BLc7D8-32" value="" style="verticalLabelPosition=bottom;verticalAlign=top;html=1;shape=mxgraph.basic.rect;fillColor2=none;strokeWidth=1;size=20;indent=5;fontSize=14;" vertex="1" parent="eYuFpCxLC6xQZ-BLc7D8-30">
          <mxGeometry width="40" height="40" as="geometry" />
        </mxCell>
        <mxCell id="eYuFpCxLC6xQZ-BLc7D8-33" style="edgeStyle=orthogonalEdgeStyle;rounded=0;orthogonalLoop=1;jettySize=auto;html=1;fontSize=14;" edge="1" parent="eYuFpCxLC6xQZ-BLc7D8-30" source="eYuFpCxLC6xQZ-BLc7D8-34">
          <mxGeometry relative="1" as="geometry">
            <mxPoint x="120" y="20" as="targetPoint" />
          </mxGeometry>
        </mxCell>
        <mxCell id="eYuFpCxLC6xQZ-BLc7D8-34" value="" style="verticalLabelPosition=bottom;verticalAlign=top;html=1;shape=mxgraph.basic.rect;fillColor2=none;strokeWidth=1;size=20;indent=5;fontSize=14;" vertex="1" parent="eYuFpCxLC6xQZ-BLc7D8-30">
          <mxGeometry x="40" width="40" height="40" as="geometry" />
        </mxCell>
        <mxCell id="eYuFpCxLC6xQZ-BLc7D8-35" value="and" style="text;html=1;strokeColor=none;fillColor=none;align=center;verticalAlign=middle;whiteSpace=wrap;rounded=0;fontSize=14;" vertex="1" parent="1">
          <mxGeometry x="440" y="210" width="60" height="30" as="geometry" />
        </mxCell>
        <mxCell id="eYuFpCxLC6xQZ-BLc7D8-36" value="" style="group;fontSize=14;" vertex="1" connectable="0" parent="1">
          <mxGeometry x="570" y="130" width="80" height="40" as="geometry" />
        </mxCell>
        <mxCell id="eYuFpCxLC6xQZ-BLc7D8-37" style="edgeStyle=orthogonalEdgeStyle;rounded=0;orthogonalLoop=1;jettySize=auto;html=1;fontSize=14;" edge="1" parent="eYuFpCxLC6xQZ-BLc7D8-36" source="eYuFpCxLC6xQZ-BLc7D8-38">
          <mxGeometry relative="1" as="geometry">
            <mxPoint x="20.000000000000057" y="80" as="targetPoint" />
          </mxGeometry>
        </mxCell>
        <mxCell id="eYuFpCxLC6xQZ-BLc7D8-38" value="" style="verticalLabelPosition=bottom;verticalAlign=top;html=1;shape=mxgraph.basic.rect;fillColor2=none;strokeWidth=1;size=20;indent=5;fontSize=14;" vertex="1" parent="eYuFpCxLC6xQZ-BLc7D8-36">
          <mxGeometry width="40" height="40" as="geometry" />
        </mxCell>
        <mxCell id="eYuFpCxLC6xQZ-BLc7D8-39" style="edgeStyle=orthogonalEdgeStyle;rounded=0;orthogonalLoop=1;jettySize=auto;html=1;fontSize=14;" edge="1" parent="eYuFpCxLC6xQZ-BLc7D8-36" source="eYuFpCxLC6xQZ-BLc7D8-40">
          <mxGeometry relative="1" as="geometry">
            <mxPoint x="120" y="20" as="targetPoint" />
          </mxGeometry>
        </mxCell>
        <mxCell id="eYuFpCxLC6xQZ-BLc7D8-40" value="" style="verticalLabelPosition=bottom;verticalAlign=top;html=1;shape=mxgraph.basic.rect;fillColor2=none;strokeWidth=1;size=20;indent=5;fontSize=14;" vertex="1" parent="eYuFpCxLC6xQZ-BLc7D8-36">
          <mxGeometry x="40" width="40" height="40" as="geometry" />
        </mxCell>
        <mxCell id="eYuFpCxLC6xQZ-BLc7D8-41" value="" style="group;fontSize=14;" vertex="1" connectable="0" parent="1">
          <mxGeometry x="570" y="210" width="80" height="40" as="geometry" />
        </mxCell>
        <mxCell id="eYuFpCxLC6xQZ-BLc7D8-42" style="edgeStyle=orthogonalEdgeStyle;rounded=0;orthogonalLoop=1;jettySize=auto;html=1;fontSize=14;" edge="1" parent="eYuFpCxLC6xQZ-BLc7D8-41" source="eYuFpCxLC6xQZ-BLc7D8-43">
          <mxGeometry relative="1" as="geometry">
            <mxPoint x="20.000000000000057" y="80" as="targetPoint" />
          </mxGeometry>
        </mxCell>
        <mxCell id="eYuFpCxLC6xQZ-BLc7D8-43" value="" style="verticalLabelPosition=bottom;verticalAlign=top;html=1;shape=mxgraph.basic.rect;fillColor2=none;strokeWidth=1;size=20;indent=5;fontSize=14;" vertex="1" parent="eYuFpCxLC6xQZ-BLc7D8-41">
          <mxGeometry width="40" height="40" as="geometry" />
        </mxCell>
        <mxCell id="eYuFpCxLC6xQZ-BLc7D8-44" style="edgeStyle=orthogonalEdgeStyle;rounded=0;orthogonalLoop=1;jettySize=auto;html=1;fontSize=14;" edge="1" parent="eYuFpCxLC6xQZ-BLc7D8-41" source="eYuFpCxLC6xQZ-BLc7D8-45">
          <mxGeometry relative="1" as="geometry">
            <mxPoint x="120" y="20" as="targetPoint" />
          </mxGeometry>
        </mxCell>
        <mxCell id="eYuFpCxLC6xQZ-BLc7D8-45" value="" style="verticalLabelPosition=bottom;verticalAlign=top;html=1;shape=mxgraph.basic.rect;fillColor2=none;strokeWidth=1;size=20;indent=5;fontSize=14;" vertex="1" parent="eYuFpCxLC6xQZ-BLc7D8-41">
          <mxGeometry x="40" width="40" height="40" as="geometry" />
        </mxCell>
        <mxCell id="eYuFpCxLC6xQZ-BLc7D8-46" value="me" style="text;html=1;strokeColor=none;fillColor=none;align=center;verticalAlign=middle;whiteSpace=wrap;rounded=0;fontSize=14;" vertex="1" parent="1">
          <mxGeometry x="560" y="290" width="60" height="30" as="geometry" />
        </mxCell>
        <mxCell id="eYuFpCxLC6xQZ-BLc7D8-47" value="" style="group;fontSize=14;" vertex="1" connectable="0" parent="1">
          <mxGeometry x="690" y="210" width="80" height="40" as="geometry" />
        </mxCell>
        <mxCell id="eYuFpCxLC6xQZ-BLc7D8-48" style="edgeStyle=orthogonalEdgeStyle;rounded=0;orthogonalLoop=1;jettySize=auto;html=1;fontSize=14;" edge="1" parent="eYuFpCxLC6xQZ-BLc7D8-47" source="eYuFpCxLC6xQZ-BLc7D8-49">
          <mxGeometry relative="1" as="geometry">
            <mxPoint x="20.000000000000057" y="80" as="targetPoint" />
          </mxGeometry>
        </mxCell>
        <mxCell id="eYuFpCxLC6xQZ-BLc7D8-49" value="" style="verticalLabelPosition=bottom;verticalAlign=top;html=1;shape=mxgraph.basic.rect;fillColor2=none;strokeWidth=1;size=20;indent=5;fontSize=14;" vertex="1" parent="eYuFpCxLC6xQZ-BLc7D8-47">
          <mxGeometry width="40" height="40" as="geometry" />
        </mxCell>
        <mxCell id="eYuFpCxLC6xQZ-BLc7D8-50" style="edgeStyle=orthogonalEdgeStyle;rounded=0;orthogonalLoop=1;jettySize=auto;html=1;fontSize=14;" edge="1" parent="eYuFpCxLC6xQZ-BLc7D8-47" source="eYuFpCxLC6xQZ-BLc7D8-51">
          <mxGeometry relative="1" as="geometry">
            <mxPoint x="120" y="20" as="targetPoint" />
          </mxGeometry>
        </mxCell>
        <mxCell id="eYuFpCxLC6xQZ-BLc7D8-51" value="" style="verticalLabelPosition=bottom;verticalAlign=top;html=1;shape=mxgraph.basic.rect;fillColor2=none;strokeWidth=1;size=20;indent=5;fontSize=14;" vertex="1" parent="eYuFpCxLC6xQZ-BLc7D8-47">
          <mxGeometry x="40" width="40" height="40" as="geometry" />
        </mxCell>
        <mxCell id="eYuFpCxLC6xQZ-BLc7D8-52" value="" style="group;fontSize=14;" vertex="1" connectable="0" parent="1">
          <mxGeometry x="690" y="290" width="80" height="40" as="geometry" />
        </mxCell>
        <mxCell id="eYuFpCxLC6xQZ-BLc7D8-53" style="edgeStyle=orthogonalEdgeStyle;rounded=0;orthogonalLoop=1;jettySize=auto;html=1;fontSize=14;" edge="1" parent="eYuFpCxLC6xQZ-BLc7D8-52" source="eYuFpCxLC6xQZ-BLc7D8-54">
          <mxGeometry relative="1" as="geometry">
            <mxPoint x="20.000000000000057" y="80" as="targetPoint" />
          </mxGeometry>
        </mxCell>
        <mxCell id="eYuFpCxLC6xQZ-BLc7D8-54" value="" style="verticalLabelPosition=bottom;verticalAlign=top;html=1;shape=mxgraph.basic.rect;fillColor2=none;strokeWidth=1;size=20;indent=5;fontSize=14;" vertex="1" parent="eYuFpCxLC6xQZ-BLc7D8-52">
          <mxGeometry width="40" height="40" as="geometry" />
        </mxCell>
        <mxCell id="eYuFpCxLC6xQZ-BLc7D8-55" style="edgeStyle=orthogonalEdgeStyle;rounded=0;orthogonalLoop=1;jettySize=auto;html=1;fontSize=14;" edge="1" parent="eYuFpCxLC6xQZ-BLc7D8-52" source="eYuFpCxLC6xQZ-BLc7D8-56">
          <mxGeometry relative="1" as="geometry">
            <mxPoint x="120" y="20" as="targetPoint" />
          </mxGeometry>
        </mxCell>
        <mxCell id="eYuFpCxLC6xQZ-BLc7D8-56" value="" style="verticalLabelPosition=bottom;verticalAlign=top;html=1;shape=mxgraph.basic.rect;fillColor2=none;strokeWidth=1;size=20;indent=5;fontSize=14;" vertex="1" parent="eYuFpCxLC6xQZ-BLc7D8-52">
          <mxGeometry x="40" width="40" height="40" as="geometry" />
        </mxCell>
        <mxCell id="eYuFpCxLC6xQZ-BLc7D8-57" value="for" style="text;html=1;strokeColor=none;fillColor=none;align=center;verticalAlign=middle;whiteSpace=wrap;rounded=0;fontSize=14;" vertex="1" parent="1">
          <mxGeometry x="680" y="370" width="60" height="30" as="geometry" />
        </mxCell>
        <mxCell id="eYuFpCxLC6xQZ-BLc7D8-58" value="" style="group;fontSize=14;" vertex="1" connectable="0" parent="1">
          <mxGeometry x="810" y="290" width="80" height="40" as="geometry" />
        </mxCell>
        <mxCell id="eYuFpCxLC6xQZ-BLc7D8-59" style="edgeStyle=orthogonalEdgeStyle;rounded=0;orthogonalLoop=1;jettySize=auto;html=1;fontSize=14;" edge="1" parent="eYuFpCxLC6xQZ-BLc7D8-58" source="eYuFpCxLC6xQZ-BLc7D8-60">
          <mxGeometry relative="1" as="geometry">
            <mxPoint x="20.000000000000057" y="80" as="targetPoint" />
          </mxGeometry>
        </mxCell>
        <mxCell id="eYuFpCxLC6xQZ-BLc7D8-60" value="" style="verticalLabelPosition=bottom;verticalAlign=top;html=1;shape=mxgraph.basic.rect;fillColor2=none;strokeWidth=1;size=20;indent=5;fontSize=14;" vertex="1" parent="eYuFpCxLC6xQZ-BLc7D8-58">
          <mxGeometry width="40" height="40" as="geometry" />
        </mxCell>
        <mxCell id="eYuFpCxLC6xQZ-BLc7D8-61" style="edgeStyle=orthogonalEdgeStyle;rounded=0;orthogonalLoop=1;jettySize=auto;html=1;fontSize=14;" edge="1" parent="eYuFpCxLC6xQZ-BLc7D8-58" source="eYuFpCxLC6xQZ-BLc7D8-62">
          <mxGeometry relative="1" as="geometry">
            <mxPoint x="120" y="20" as="targetPoint" />
          </mxGeometry>
        </mxCell>
        <mxCell id="eYuFpCxLC6xQZ-BLc7D8-62" value="" style="verticalLabelPosition=bottom;verticalAlign=top;html=1;shape=mxgraph.basic.rect;fillColor2=none;strokeWidth=1;size=20;indent=5;fontSize=14;" vertex="1" parent="eYuFpCxLC6xQZ-BLc7D8-58">
          <mxGeometry x="40" width="40" height="40" as="geometry" />
        </mxCell>
        <mxCell id="eYuFpCxLC6xQZ-BLc7D8-63" value="you" style="text;html=1;strokeColor=none;fillColor=none;align=center;verticalAlign=middle;whiteSpace=wrap;rounded=0;fontSize=14;" vertex="1" parent="1">
          <mxGeometry x="797" y="370" width="60" height="30" as="geometry" />
        </mxCell>
        <mxCell id="eYuFpCxLC6xQZ-BLc7D8-64" value="Nil" style="text;html=1;strokeColor=none;fillColor=none;align=left;verticalAlign=middle;whiteSpace=wrap;rounded=0;fontSize=14;" vertex="1" parent="1">
          <mxGeometry x="930" y="295" width="40" height="30" as="geometry" />
        </mxCell>
        <mxCell id="eYuFpCxLC6xQZ-BLc7D8-65" value="Nil" style="text;html=1;strokeColor=none;fillColor=none;align=left;verticalAlign=middle;whiteSpace=wrap;rounded=0;fontSize=14;" vertex="1" parent="1">
          <mxGeometry x="570" y="55" width="40" height="30" as="geometry" />
        </mxCell>
        <mxCell id="eYuFpCxLC6xQZ-BLc7D8-66" value="Nil" style="text;html=1;strokeColor=none;fillColor=none;align=left;verticalAlign=middle;whiteSpace=wrap;rounded=0;fontSize=14;" vertex="1" parent="1">
          <mxGeometry x="690" y="135" width="40" height="30" as="geometry" />
        </mxCell>
        <mxCell id="eYuFpCxLC6xQZ-BLc7D8-67" value="Nil" style="text;html=1;strokeColor=none;fillColor=none;align=left;verticalAlign=middle;whiteSpace=wrap;rounded=0;fontSize=14;" vertex="1" parent="1">
          <mxGeometry x="810" y="215" width="40" height="30" as="geometry" />
        </mxCell>
      </root>
    </mxGraphModel>
  </diagram>
  <diagram id="8PaU3HvHThCaSv1Qafe1" name="1.4">
    <mxGraphModel dx="1722" dy="1094" grid="0" gridSize="10" guides="1" tooltips="1" connect="1" arrows="1" fold="1" page="1" pageScale="1" pageWidth="827" pageHeight="1169" math="0" shadow="0">
      <root>
        <mxCell id="0" />
        <mxCell id="1" parent="0" />
        <mxCell id="VuLiJNRdJduxDja-bFIB-1" value="" style="group;fontSize=14;" vertex="1" connectable="0" parent="1">
          <mxGeometry x="90" y="40" width="80" height="40" as="geometry" />
        </mxCell>
        <mxCell id="VuLiJNRdJduxDja-bFIB-2" style="edgeStyle=orthogonalEdgeStyle;rounded=0;orthogonalLoop=1;jettySize=auto;html=1;fontSize=14;" edge="1" parent="VuLiJNRdJduxDja-bFIB-1" source="VuLiJNRdJduxDja-bFIB-3">
          <mxGeometry relative="1" as="geometry">
            <mxPoint x="20.000000000000057" y="80" as="targetPoint" />
          </mxGeometry>
        </mxCell>
        <mxCell id="VuLiJNRdJduxDja-bFIB-3" value="" style="verticalLabelPosition=bottom;verticalAlign=top;html=1;shape=mxgraph.basic.rect;fillColor2=none;strokeWidth=1;size=20;indent=5;fontSize=14;" vertex="1" parent="VuLiJNRdJduxDja-bFIB-1">
          <mxGeometry width="40" height="40" as="geometry" />
        </mxCell>
        <mxCell id="VuLiJNRdJduxDja-bFIB-4" style="edgeStyle=orthogonalEdgeStyle;rounded=0;orthogonalLoop=1;jettySize=auto;html=1;fontSize=14;" edge="1" parent="VuLiJNRdJduxDja-bFIB-1" source="VuLiJNRdJduxDja-bFIB-5">
          <mxGeometry relative="1" as="geometry">
            <mxPoint x="160" y="20" as="targetPoint" />
          </mxGeometry>
        </mxCell>
        <mxCell id="VuLiJNRdJduxDja-bFIB-5" value="" style="verticalLabelPosition=bottom;verticalAlign=top;html=1;shape=mxgraph.basic.rect;fillColor2=none;strokeWidth=1;size=20;indent=5;fontSize=14;" vertex="1" parent="VuLiJNRdJduxDja-bFIB-1">
          <mxGeometry x="40" width="40" height="40" as="geometry" />
        </mxCell>
        <mxCell id="VuLiJNRdJduxDja-bFIB-6" value="TOOL" style="text;html=1;strokeColor=none;fillColor=none;align=center;verticalAlign=middle;whiteSpace=wrap;rounded=0;fontSize=14;" vertex="1" parent="1">
          <mxGeometry x="80" y="200" width="60" height="30" as="geometry" />
        </mxCell>
        <mxCell id="VuLiJNRdJduxDja-bFIB-7" value="" style="group;fontSize=14;" vertex="1" connectable="0" parent="1">
          <mxGeometry x="90" y="120" width="80" height="40" as="geometry" />
        </mxCell>
        <mxCell id="VuLiJNRdJduxDja-bFIB-8" style="edgeStyle=orthogonalEdgeStyle;rounded=0;orthogonalLoop=1;jettySize=auto;html=1;fontSize=14;" edge="1" parent="VuLiJNRdJduxDja-bFIB-7" source="VuLiJNRdJduxDja-bFIB-9">
          <mxGeometry relative="1" as="geometry">
            <mxPoint x="20.000000000000057" y="80" as="targetPoint" />
          </mxGeometry>
        </mxCell>
        <mxCell id="VuLiJNRdJduxDja-bFIB-9" value="" style="verticalLabelPosition=bottom;verticalAlign=top;html=1;shape=mxgraph.basic.rect;fillColor2=none;strokeWidth=1;size=20;indent=5;fontSize=14;" vertex="1" parent="VuLiJNRdJduxDja-bFIB-7">
          <mxGeometry width="40" height="40" as="geometry" />
        </mxCell>
        <mxCell id="VuLiJNRdJduxDja-bFIB-10" style="edgeStyle=orthogonalEdgeStyle;rounded=0;orthogonalLoop=1;jettySize=auto;html=1;fontSize=14;" edge="1" parent="VuLiJNRdJduxDja-bFIB-7" source="VuLiJNRdJduxDja-bFIB-11">
          <mxGeometry relative="1" as="geometry">
            <mxPoint x="120" y="20" as="targetPoint" />
          </mxGeometry>
        </mxCell>
        <mxCell id="VuLiJNRdJduxDja-bFIB-11" value="" style="verticalLabelPosition=bottom;verticalAlign=top;html=1;shape=mxgraph.basic.rect;fillColor2=none;strokeWidth=1;size=20;indent=5;fontSize=14;" vertex="1" parent="VuLiJNRdJduxDja-bFIB-7">
          <mxGeometry x="40" width="40" height="40" as="geometry" />
        </mxCell>
        <mxCell id="VuLiJNRdJduxDja-bFIB-12" value="Nil" style="text;html=1;strokeColor=none;fillColor=none;align=left;verticalAlign=middle;whiteSpace=wrap;rounded=0;fontSize=14;" vertex="1" parent="1">
          <mxGeometry x="210" y="125" width="60" height="30" as="geometry" />
        </mxCell>
        <mxCell id="VuLiJNRdJduxDja-bFIB-13" value="" style="group;fontSize=14;" vertex="1" connectable="0" parent="1">
          <mxGeometry x="250" y="40" width="80" height="40" as="geometry" />
        </mxCell>
        <mxCell id="VuLiJNRdJduxDja-bFIB-14" style="edgeStyle=orthogonalEdgeStyle;rounded=0;orthogonalLoop=1;jettySize=auto;html=1;fontSize=14;" edge="1" parent="VuLiJNRdJduxDja-bFIB-13" source="VuLiJNRdJduxDja-bFIB-15">
          <mxGeometry relative="1" as="geometry">
            <mxPoint x="20.000000000000057" y="80" as="targetPoint" />
          </mxGeometry>
        </mxCell>
        <mxCell id="VuLiJNRdJduxDja-bFIB-15" value="" style="verticalLabelPosition=bottom;verticalAlign=top;html=1;shape=mxgraph.basic.rect;fillColor2=none;strokeWidth=1;size=20;indent=5;fontSize=14;" vertex="1" parent="VuLiJNRdJduxDja-bFIB-13">
          <mxGeometry width="40" height="40" as="geometry" />
        </mxCell>
        <mxCell id="VuLiJNRdJduxDja-bFIB-16" style="edgeStyle=orthogonalEdgeStyle;rounded=0;orthogonalLoop=1;jettySize=auto;html=1;fontSize=14;" edge="1" parent="VuLiJNRdJduxDja-bFIB-13" source="VuLiJNRdJduxDja-bFIB-17">
          <mxGeometry relative="1" as="geometry">
            <mxPoint x="160" y="20" as="targetPoint" />
          </mxGeometry>
        </mxCell>
        <mxCell id="VuLiJNRdJduxDja-bFIB-17" value="" style="verticalLabelPosition=bottom;verticalAlign=top;html=1;shape=mxgraph.basic.rect;fillColor2=none;strokeWidth=1;size=20;indent=5;fontSize=14;" vertex="1" parent="VuLiJNRdJduxDja-bFIB-13">
          <mxGeometry x="40" width="40" height="40" as="geometry" />
        </mxCell>
        <mxCell id="VuLiJNRdJduxDja-bFIB-18" value="call" style="text;html=1;strokeColor=none;fillColor=none;align=center;verticalAlign=middle;whiteSpace=wrap;rounded=0;fontSize=14;" vertex="1" parent="1">
          <mxGeometry x="240" y="200" width="60" height="30" as="geometry" />
        </mxCell>
        <mxCell id="VuLiJNRdJduxDja-bFIB-19" value="" style="group;fontSize=14;" vertex="1" connectable="0" parent="1">
          <mxGeometry x="250" y="120" width="80" height="40" as="geometry" />
        </mxCell>
        <mxCell id="VuLiJNRdJduxDja-bFIB-20" style="edgeStyle=orthogonalEdgeStyle;rounded=0;orthogonalLoop=1;jettySize=auto;html=1;fontSize=14;" edge="1" parent="VuLiJNRdJduxDja-bFIB-19" source="VuLiJNRdJduxDja-bFIB-21">
          <mxGeometry relative="1" as="geometry">
            <mxPoint x="20.000000000000057" y="80" as="targetPoint" />
          </mxGeometry>
        </mxCell>
        <mxCell id="VuLiJNRdJduxDja-bFIB-21" value="" style="verticalLabelPosition=bottom;verticalAlign=top;html=1;shape=mxgraph.basic.rect;fillColor2=none;strokeWidth=1;size=20;indent=5;fontSize=14;" vertex="1" parent="VuLiJNRdJduxDja-bFIB-19">
          <mxGeometry width="40" height="40" as="geometry" />
        </mxCell>
        <mxCell id="VuLiJNRdJduxDja-bFIB-22" style="edgeStyle=orthogonalEdgeStyle;rounded=0;orthogonalLoop=1;jettySize=auto;html=1;fontSize=14;" edge="1" parent="VuLiJNRdJduxDja-bFIB-19" source="VuLiJNRdJduxDja-bFIB-23">
          <mxGeometry relative="1" as="geometry">
            <mxPoint x="120" y="20" as="targetPoint" />
          </mxGeometry>
        </mxCell>
        <mxCell id="VuLiJNRdJduxDja-bFIB-23" value="" style="verticalLabelPosition=bottom;verticalAlign=top;html=1;shape=mxgraph.basic.rect;fillColor2=none;strokeWidth=1;size=20;indent=5;fontSize=14;" vertex="1" parent="VuLiJNRdJduxDja-bFIB-19">
          <mxGeometry x="40" width="40" height="40" as="geometry" />
        </mxCell>
        <mxCell id="VuLiJNRdJduxDja-bFIB-24" value="Nil" style="text;html=1;strokeColor=none;fillColor=none;align=left;verticalAlign=middle;whiteSpace=wrap;rounded=0;fontSize=14;" vertex="1" parent="1">
          <mxGeometry x="370" y="125" width="60" height="30" as="geometry" />
        </mxCell>
        <mxCell id="VuLiJNRdJduxDja-bFIB-26" value="Nil" style="text;html=1;strokeColor=none;fillColor=none;align=left;verticalAlign=middle;whiteSpace=wrap;rounded=0;fontSize=14;" vertex="1" parent="1">
          <mxGeometry x="410" y="45" width="60" height="30" as="geometry" />
        </mxCell>
      </root>
    </mxGraphModel>
  </diagram>
  <diagram id="2YjKIZc2a5w-QNs1NHv2" name="1.5">
    <mxGraphModel dx="2035" dy="1293" grid="0" gridSize="10" guides="1" tooltips="1" connect="1" arrows="1" fold="1" page="1" pageScale="1" pageWidth="827" pageHeight="1169" math="0" shadow="0">
      <root>
        <mxCell id="0" />
        <mxCell id="1" parent="0" />
        <mxCell id="WBpG0xBLuNUkLaWx3GTH-1" value="" style="group;fontSize=14;" vertex="1" connectable="0" parent="1">
          <mxGeometry x="50" y="40" width="80" height="40" as="geometry" />
        </mxCell>
        <mxCell id="WBpG0xBLuNUkLaWx3GTH-2" style="edgeStyle=orthogonalEdgeStyle;rounded=0;orthogonalLoop=1;jettySize=auto;html=1;fontSize=14;" edge="1" parent="WBpG0xBLuNUkLaWx3GTH-1" source="WBpG0xBLuNUkLaWx3GTH-3">
          <mxGeometry relative="1" as="geometry">
            <mxPoint x="20.000000000000057" y="80" as="targetPoint" />
          </mxGeometry>
        </mxCell>
        <mxCell id="WBpG0xBLuNUkLaWx3GTH-3" value="" style="verticalLabelPosition=bottom;verticalAlign=top;html=1;shape=mxgraph.basic.rect;fillColor2=none;strokeWidth=1;size=20;indent=5;fontSize=14;" vertex="1" parent="WBpG0xBLuNUkLaWx3GTH-1">
          <mxGeometry width="40" height="40" as="geometry" />
        </mxCell>
        <mxCell id="WBpG0xBLuNUkLaWx3GTH-4" style="edgeStyle=orthogonalEdgeStyle;rounded=0;orthogonalLoop=1;jettySize=auto;html=1;fontSize=14;" edge="1" parent="WBpG0xBLuNUkLaWx3GTH-1" source="WBpG0xBLuNUkLaWx3GTH-5">
          <mxGeometry relative="1" as="geometry">
            <mxPoint x="160" y="20" as="targetPoint" />
          </mxGeometry>
        </mxCell>
        <mxCell id="WBpG0xBLuNUkLaWx3GTH-5" value="" style="verticalLabelPosition=bottom;verticalAlign=top;html=1;shape=mxgraph.basic.rect;fillColor2=none;strokeWidth=1;size=20;indent=5;fontSize=14;" vertex="1" parent="WBpG0xBLuNUkLaWx3GTH-1">
          <mxGeometry x="40" width="40" height="40" as="geometry" />
        </mxCell>
        <mxCell id="WBpG0xBLuNUkLaWx3GTH-6" value="" style="group;fontSize=14;" vertex="1" connectable="0" parent="1">
          <mxGeometry x="50" y="120" width="80" height="40" as="geometry" />
        </mxCell>
        <mxCell id="WBpG0xBLuNUkLaWx3GTH-7" style="edgeStyle=orthogonalEdgeStyle;rounded=0;orthogonalLoop=1;jettySize=auto;html=1;fontSize=14;" edge="1" parent="WBpG0xBLuNUkLaWx3GTH-6" source="WBpG0xBLuNUkLaWx3GTH-8">
          <mxGeometry relative="1" as="geometry">
            <mxPoint x="20.000000000000057" y="80" as="targetPoint" />
          </mxGeometry>
        </mxCell>
        <mxCell id="WBpG0xBLuNUkLaWx3GTH-8" value="" style="verticalLabelPosition=bottom;verticalAlign=top;html=1;shape=mxgraph.basic.rect;fillColor2=none;strokeWidth=1;size=20;indent=5;fontSize=14;" vertex="1" parent="WBpG0xBLuNUkLaWx3GTH-6">
          <mxGeometry width="40" height="40" as="geometry" />
        </mxCell>
        <mxCell id="WBpG0xBLuNUkLaWx3GTH-9" style="edgeStyle=orthogonalEdgeStyle;rounded=0;orthogonalLoop=1;jettySize=auto;html=1;fontSize=14;" edge="1" parent="WBpG0xBLuNUkLaWx3GTH-6" source="WBpG0xBLuNUkLaWx3GTH-10">
          <mxGeometry relative="1" as="geometry">
            <mxPoint x="120" y="20" as="targetPoint" />
          </mxGeometry>
        </mxCell>
        <mxCell id="WBpG0xBLuNUkLaWx3GTH-10" value="" style="verticalLabelPosition=bottom;verticalAlign=top;html=1;shape=mxgraph.basic.rect;fillColor2=none;strokeWidth=1;size=20;indent=5;fontSize=14;" vertex="1" parent="WBpG0xBLuNUkLaWx3GTH-6">
          <mxGeometry x="40" width="40" height="40" as="geometry" />
        </mxCell>
        <mxCell id="rSYaJQ6dwGjveoayYSSM-1" value="TOOL1" style="text;html=1;strokeColor=none;fillColor=none;align=center;verticalAlign=middle;whiteSpace=wrap;rounded=0;fontSize=14;" vertex="1" parent="1">
          <mxGeometry x="40" y="200" width="60" height="30" as="geometry" />
        </mxCell>
        <mxCell id="rSYaJQ6dwGjveoayYSSM-2" value="Nil" style="text;html=1;strokeColor=none;fillColor=none;align=left;verticalAlign=middle;whiteSpace=wrap;rounded=0;fontSize=14;" vertex="1" parent="1">
          <mxGeometry x="170" y="125" width="60" height="30" as="geometry" />
        </mxCell>
        <mxCell id="QZACKsAoTw1FrSpeqFFY-1" value="" style="group;fontSize=14;" vertex="1" connectable="0" parent="1">
          <mxGeometry x="210" y="40" width="80" height="40" as="geometry" />
        </mxCell>
        <mxCell id="QZACKsAoTw1FrSpeqFFY-2" style="edgeStyle=orthogonalEdgeStyle;rounded=0;orthogonalLoop=1;jettySize=auto;html=1;fontSize=14;" edge="1" parent="QZACKsAoTw1FrSpeqFFY-1" source="QZACKsAoTw1FrSpeqFFY-3">
          <mxGeometry relative="1" as="geometry">
            <mxPoint x="20.000000000000057" y="80" as="targetPoint" />
          </mxGeometry>
        </mxCell>
        <mxCell id="QZACKsAoTw1FrSpeqFFY-3" value="" style="verticalLabelPosition=bottom;verticalAlign=top;html=1;shape=mxgraph.basic.rect;fillColor2=none;strokeWidth=1;size=20;indent=5;fontSize=14;" vertex="1" parent="QZACKsAoTw1FrSpeqFFY-1">
          <mxGeometry width="40" height="40" as="geometry" />
        </mxCell>
        <mxCell id="QZACKsAoTw1FrSpeqFFY-4" style="edgeStyle=orthogonalEdgeStyle;rounded=0;orthogonalLoop=1;jettySize=auto;html=1;fontSize=14;" edge="1" parent="QZACKsAoTw1FrSpeqFFY-1" source="QZACKsAoTw1FrSpeqFFY-5">
          <mxGeometry relative="1" as="geometry">
            <mxPoint x="200" y="20" as="targetPoint" />
          </mxGeometry>
        </mxCell>
        <mxCell id="QZACKsAoTw1FrSpeqFFY-5" value="" style="verticalLabelPosition=bottom;verticalAlign=top;html=1;shape=mxgraph.basic.rect;fillColor2=none;strokeWidth=1;size=20;indent=5;fontSize=14;" vertex="1" parent="QZACKsAoTw1FrSpeqFFY-1">
          <mxGeometry x="40" width="40" height="40" as="geometry" />
        </mxCell>
        <mxCell id="QZACKsAoTw1FrSpeqFFY-6" value="" style="group;fontSize=14;" vertex="1" connectable="0" parent="1">
          <mxGeometry x="210" y="120" width="80" height="40" as="geometry" />
        </mxCell>
        <mxCell id="QZACKsAoTw1FrSpeqFFY-7" style="edgeStyle=orthogonalEdgeStyle;rounded=0;orthogonalLoop=1;jettySize=auto;html=1;fontSize=14;" edge="1" parent="QZACKsAoTw1FrSpeqFFY-6" source="QZACKsAoTw1FrSpeqFFY-8">
          <mxGeometry relative="1" as="geometry">
            <mxPoint x="20.000000000000057" y="80" as="targetPoint" />
          </mxGeometry>
        </mxCell>
        <mxCell id="QZACKsAoTw1FrSpeqFFY-8" value="" style="verticalLabelPosition=bottom;verticalAlign=top;html=1;shape=mxgraph.basic.rect;fillColor2=none;strokeWidth=1;size=20;indent=5;fontSize=14;" vertex="1" parent="QZACKsAoTw1FrSpeqFFY-6">
          <mxGeometry width="40" height="40" as="geometry" />
        </mxCell>
        <mxCell id="QZACKsAoTw1FrSpeqFFY-9" style="edgeStyle=orthogonalEdgeStyle;rounded=0;orthogonalLoop=1;jettySize=auto;html=1;fontSize=14;" edge="1" parent="QZACKsAoTw1FrSpeqFFY-6" source="QZACKsAoTw1FrSpeqFFY-10">
          <mxGeometry relative="1" as="geometry">
            <mxPoint x="160" y="20" as="targetPoint" />
          </mxGeometry>
        </mxCell>
        <mxCell id="QZACKsAoTw1FrSpeqFFY-10" value="" style="verticalLabelPosition=bottom;verticalAlign=top;html=1;shape=mxgraph.basic.rect;fillColor2=none;strokeWidth=1;size=20;indent=5;fontSize=14;" vertex="1" parent="QZACKsAoTw1FrSpeqFFY-6">
          <mxGeometry x="40" width="40" height="40" as="geometry" />
        </mxCell>
        <mxCell id="QZACKsAoTw1FrSpeqFFY-11" value="" style="group;fontSize=14;" vertex="1" connectable="0" parent="1">
          <mxGeometry x="210" y="200" width="80" height="40" as="geometry" />
        </mxCell>
        <mxCell id="QZACKsAoTw1FrSpeqFFY-12" style="edgeStyle=orthogonalEdgeStyle;rounded=0;orthogonalLoop=1;jettySize=auto;html=1;fontSize=14;" edge="1" parent="QZACKsAoTw1FrSpeqFFY-11" source="QZACKsAoTw1FrSpeqFFY-13">
          <mxGeometry relative="1" as="geometry">
            <mxPoint x="20.000000000000057" y="80" as="targetPoint" />
          </mxGeometry>
        </mxCell>
        <mxCell id="QZACKsAoTw1FrSpeqFFY-13" value="" style="verticalLabelPosition=bottom;verticalAlign=top;html=1;shape=mxgraph.basic.rect;fillColor2=none;strokeWidth=1;size=20;indent=5;fontSize=14;" vertex="1" parent="QZACKsAoTw1FrSpeqFFY-11">
          <mxGeometry width="40" height="40" as="geometry" />
        </mxCell>
        <mxCell id="QZACKsAoTw1FrSpeqFFY-14" style="edgeStyle=orthogonalEdgeStyle;rounded=0;orthogonalLoop=1;jettySize=auto;html=1;fontSize=14;" edge="1" parent="QZACKsAoTw1FrSpeqFFY-11" source="QZACKsAoTw1FrSpeqFFY-15">
          <mxGeometry relative="1" as="geometry">
            <mxPoint x="130" y="20" as="targetPoint" />
          </mxGeometry>
        </mxCell>
        <mxCell id="QZACKsAoTw1FrSpeqFFY-15" value="" style="verticalLabelPosition=bottom;verticalAlign=top;html=1;shape=mxgraph.basic.rect;fillColor2=none;strokeWidth=1;size=20;indent=5;fontSize=14;" vertex="1" parent="QZACKsAoTw1FrSpeqFFY-11">
          <mxGeometry x="40" width="40" height="40" as="geometry" />
        </mxCell>
        <mxCell id="QZACKsAoTw1FrSpeqFFY-16" value="call2" style="text;html=1;strokeColor=none;fillColor=none;align=center;verticalAlign=middle;whiteSpace=wrap;rounded=0;fontSize=14;" vertex="1" parent="1">
          <mxGeometry x="200" y="280" width="60" height="30" as="geometry" />
        </mxCell>
        <mxCell id="QZACKsAoTw1FrSpeqFFY-17" value="Nil" style="text;html=1;strokeColor=none;fillColor=none;align=left;verticalAlign=middle;whiteSpace=wrap;rounded=0;fontSize=14;" vertex="1" parent="1">
          <mxGeometry x="340" y="205" width="60" height="30" as="geometry" />
        </mxCell>
        <mxCell id="QZACKsAoTw1FrSpeqFFY-18" value="Nil" style="text;html=1;strokeColor=none;fillColor=none;align=left;verticalAlign=middle;whiteSpace=wrap;rounded=0;fontSize=14;" vertex="1" parent="1">
          <mxGeometry x="370" y="125" width="60" height="30" as="geometry" />
        </mxCell>
        <mxCell id="QZACKsAoTw1FrSpeqFFY-19" value="" style="group;fontSize=14;" vertex="1" connectable="0" parent="1">
          <mxGeometry x="410" y="40" width="80" height="40" as="geometry" />
        </mxCell>
        <mxCell id="QZACKsAoTw1FrSpeqFFY-20" style="edgeStyle=orthogonalEdgeStyle;rounded=0;orthogonalLoop=1;jettySize=auto;html=1;fontSize=14;" edge="1" parent="QZACKsAoTw1FrSpeqFFY-19" source="QZACKsAoTw1FrSpeqFFY-21">
          <mxGeometry relative="1" as="geometry">
            <mxPoint x="20.000000000000057" y="80" as="targetPoint" />
          </mxGeometry>
        </mxCell>
        <mxCell id="QZACKsAoTw1FrSpeqFFY-21" value="" style="verticalLabelPosition=bottom;verticalAlign=top;html=1;shape=mxgraph.basic.rect;fillColor2=none;strokeWidth=1;size=20;indent=5;fontSize=14;" vertex="1" parent="QZACKsAoTw1FrSpeqFFY-19">
          <mxGeometry width="40" height="40" as="geometry" />
        </mxCell>
        <mxCell id="QZACKsAoTw1FrSpeqFFY-22" style="edgeStyle=orthogonalEdgeStyle;rounded=0;orthogonalLoop=1;jettySize=auto;html=1;fontSize=14;" edge="1" parent="QZACKsAoTw1FrSpeqFFY-19" source="QZACKsAoTw1FrSpeqFFY-23">
          <mxGeometry relative="1" as="geometry">
            <mxPoint x="200" y="20" as="targetPoint" />
          </mxGeometry>
        </mxCell>
        <mxCell id="QZACKsAoTw1FrSpeqFFY-23" value="" style="verticalLabelPosition=bottom;verticalAlign=top;html=1;shape=mxgraph.basic.rect;fillColor2=none;strokeWidth=1;size=20;indent=5;fontSize=14;" vertex="1" parent="QZACKsAoTw1FrSpeqFFY-19">
          <mxGeometry x="40" width="40" height="40" as="geometry" />
        </mxCell>
        <mxCell id="QZACKsAoTw1FrSpeqFFY-24" value="" style="group;fontSize=14;" vertex="1" connectable="0" parent="1">
          <mxGeometry x="410" y="120" width="80" height="40" as="geometry" />
        </mxCell>
        <mxCell id="QZACKsAoTw1FrSpeqFFY-25" style="edgeStyle=orthogonalEdgeStyle;rounded=0;orthogonalLoop=1;jettySize=auto;html=1;fontSize=14;" edge="1" parent="QZACKsAoTw1FrSpeqFFY-24" source="QZACKsAoTw1FrSpeqFFY-26">
          <mxGeometry relative="1" as="geometry">
            <mxPoint x="20.000000000000057" y="80" as="targetPoint" />
          </mxGeometry>
        </mxCell>
        <mxCell id="QZACKsAoTw1FrSpeqFFY-26" value="" style="verticalLabelPosition=bottom;verticalAlign=top;html=1;shape=mxgraph.basic.rect;fillColor2=none;strokeWidth=1;size=20;indent=5;fontSize=14;" vertex="1" parent="QZACKsAoTw1FrSpeqFFY-24">
          <mxGeometry width="40" height="40" as="geometry" />
        </mxCell>
        <mxCell id="QZACKsAoTw1FrSpeqFFY-27" style="edgeStyle=orthogonalEdgeStyle;rounded=0;orthogonalLoop=1;jettySize=auto;html=1;fontSize=14;" edge="1" parent="QZACKsAoTw1FrSpeqFFY-24" source="QZACKsAoTw1FrSpeqFFY-28">
          <mxGeometry relative="1" as="geometry">
            <mxPoint x="160" y="20" as="targetPoint" />
          </mxGeometry>
        </mxCell>
        <mxCell id="QZACKsAoTw1FrSpeqFFY-28" value="" style="verticalLabelPosition=bottom;verticalAlign=top;html=1;shape=mxgraph.basic.rect;fillColor2=none;strokeWidth=1;size=20;indent=5;fontSize=14;" vertex="1" parent="QZACKsAoTw1FrSpeqFFY-24">
          <mxGeometry x="40" width="40" height="40" as="geometry" />
        </mxCell>
        <mxCell id="QZACKsAoTw1FrSpeqFFY-29" value="" style="group;fontSize=14;" vertex="1" connectable="0" parent="1">
          <mxGeometry x="410" y="200" width="80" height="40" as="geometry" />
        </mxCell>
        <mxCell id="QZACKsAoTw1FrSpeqFFY-30" style="edgeStyle=orthogonalEdgeStyle;rounded=0;orthogonalLoop=1;jettySize=auto;html=1;fontSize=14;" edge="1" parent="QZACKsAoTw1FrSpeqFFY-29" source="QZACKsAoTw1FrSpeqFFY-31">
          <mxGeometry relative="1" as="geometry">
            <mxPoint x="20.000000000000057" y="80" as="targetPoint" />
          </mxGeometry>
        </mxCell>
        <mxCell id="QZACKsAoTw1FrSpeqFFY-31" value="" style="verticalLabelPosition=bottom;verticalAlign=top;html=1;shape=mxgraph.basic.rect;fillColor2=none;strokeWidth=1;size=20;indent=5;fontSize=14;" vertex="1" parent="QZACKsAoTw1FrSpeqFFY-29">
          <mxGeometry width="40" height="40" as="geometry" />
        </mxCell>
        <mxCell id="QZACKsAoTw1FrSpeqFFY-32" style="edgeStyle=orthogonalEdgeStyle;rounded=0;orthogonalLoop=1;jettySize=auto;html=1;fontSize=14;" edge="1" parent="QZACKsAoTw1FrSpeqFFY-29" source="QZACKsAoTw1FrSpeqFFY-33">
          <mxGeometry relative="1" as="geometry">
            <mxPoint x="130" y="20" as="targetPoint" />
          </mxGeometry>
        </mxCell>
        <mxCell id="QZACKsAoTw1FrSpeqFFY-33" value="" style="verticalLabelPosition=bottom;verticalAlign=top;html=1;shape=mxgraph.basic.rect;fillColor2=none;strokeWidth=1;size=20;indent=5;fontSize=14;" vertex="1" parent="QZACKsAoTw1FrSpeqFFY-29">
          <mxGeometry x="40" width="40" height="40" as="geometry" />
        </mxCell>
        <mxCell id="QZACKsAoTw1FrSpeqFFY-34" value="sell" style="text;html=1;strokeColor=none;fillColor=none;align=center;verticalAlign=middle;whiteSpace=wrap;rounded=0;fontSize=14;" vertex="1" parent="1">
          <mxGeometry x="400" y="280" width="60" height="30" as="geometry" />
        </mxCell>
        <mxCell id="QZACKsAoTw1FrSpeqFFY-35" value="Nil" style="text;html=1;strokeColor=none;fillColor=none;align=left;verticalAlign=middle;whiteSpace=wrap;rounded=0;fontSize=14;" vertex="1" parent="1">
          <mxGeometry x="540" y="205" width="60" height="30" as="geometry" />
        </mxCell>
        <mxCell id="QZACKsAoTw1FrSpeqFFY-36" value="Nil" style="text;html=1;strokeColor=none;fillColor=none;align=left;verticalAlign=middle;whiteSpace=wrap;rounded=0;fontSize=14;" vertex="1" parent="1">
          <mxGeometry x="570" y="125" width="60" height="30" as="geometry" />
        </mxCell>
        <mxCell id="JdPMyabbarpYJfXh1rAt-1" value="Nil" style="text;html=1;strokeColor=none;fillColor=none;align=left;verticalAlign=middle;whiteSpace=wrap;rounded=0;fontSize=14;" vertex="1" parent="1">
          <mxGeometry x="610" y="45" width="60" height="30" as="geometry" />
        </mxCell>
      </root>
    </mxGraphModel>
  </diagram>
  <diagram id="M4H2jXcRHY_09nUPYjT8" name="1.6">
    <mxGraphModel dx="1399" dy="889" grid="0" gridSize="10" guides="1" tooltips="1" connect="1" arrows="1" fold="1" page="1" pageScale="1" pageWidth="827" pageHeight="1169" math="0" shadow="0">
      <root>
        <mxCell id="0" />
        <mxCell id="1" parent="0" />
        <mxCell id="ToaOfZalFSrFew12trI2-1" value="" style="group;fontSize=14;" vertex="1" connectable="0" parent="1">
          <mxGeometry x="40" y="160" width="80" height="40" as="geometry" />
        </mxCell>
        <mxCell id="ToaOfZalFSrFew12trI2-2" style="edgeStyle=orthogonalEdgeStyle;rounded=0;orthogonalLoop=1;jettySize=auto;html=1;fontSize=14;" edge="1" parent="ToaOfZalFSrFew12trI2-1" source="ToaOfZalFSrFew12trI2-3">
          <mxGeometry relative="1" as="geometry">
            <mxPoint x="20.000000000000057" y="80" as="targetPoint" />
          </mxGeometry>
        </mxCell>
        <mxCell id="ToaOfZalFSrFew12trI2-3" value="" style="verticalLabelPosition=bottom;verticalAlign=top;html=1;shape=mxgraph.basic.rect;fillColor2=none;strokeWidth=1;size=20;indent=5;fontSize=14;" vertex="1" parent="ToaOfZalFSrFew12trI2-1">
          <mxGeometry width="40" height="40" as="geometry" />
        </mxCell>
        <mxCell id="ToaOfZalFSrFew12trI2-4" style="edgeStyle=orthogonalEdgeStyle;rounded=0;orthogonalLoop=1;jettySize=auto;html=1;fontSize=14;" edge="1" parent="ToaOfZalFSrFew12trI2-1" source="ToaOfZalFSrFew12trI2-5">
          <mxGeometry relative="1" as="geometry">
            <mxPoint x="160" y="20" as="targetPoint" />
          </mxGeometry>
        </mxCell>
        <mxCell id="ToaOfZalFSrFew12trI2-5" value="" style="verticalLabelPosition=bottom;verticalAlign=top;html=1;shape=mxgraph.basic.rect;fillColor2=none;strokeWidth=1;size=20;indent=5;fontSize=14;" vertex="1" parent="ToaOfZalFSrFew12trI2-1">
          <mxGeometry x="40" width="40" height="40" as="geometry" />
        </mxCell>
        <mxCell id="ToaOfZalFSrFew12trI2-13" value="" style="group;fontSize=14;" vertex="1" connectable="0" parent="1">
          <mxGeometry x="200" y="160" width="80" height="40" as="geometry" />
        </mxCell>
        <mxCell id="ToaOfZalFSrFew12trI2-14" style="edgeStyle=orthogonalEdgeStyle;rounded=0;orthogonalLoop=1;jettySize=auto;html=1;fontSize=14;" edge="1" parent="ToaOfZalFSrFew12trI2-13" source="ToaOfZalFSrFew12trI2-15">
          <mxGeometry relative="1" as="geometry">
            <mxPoint x="20.000000000000057" y="80" as="targetPoint" />
          </mxGeometry>
        </mxCell>
        <mxCell id="ToaOfZalFSrFew12trI2-15" value="" style="verticalLabelPosition=bottom;verticalAlign=top;html=1;shape=mxgraph.basic.rect;fillColor2=none;strokeWidth=1;size=20;indent=5;fontSize=14;" vertex="1" parent="ToaOfZalFSrFew12trI2-13">
          <mxGeometry width="40" height="40" as="geometry" />
        </mxCell>
        <mxCell id="ToaOfZalFSrFew12trI2-16" style="edgeStyle=orthogonalEdgeStyle;rounded=0;orthogonalLoop=1;jettySize=auto;html=1;fontSize=14;" edge="1" parent="ToaOfZalFSrFew12trI2-13" source="ToaOfZalFSrFew12trI2-17">
          <mxGeometry relative="1" as="geometry">
            <mxPoint x="160" y="20" as="targetPoint" />
          </mxGeometry>
        </mxCell>
        <mxCell id="ToaOfZalFSrFew12trI2-17" value="" style="verticalLabelPosition=bottom;verticalAlign=top;html=1;shape=mxgraph.basic.rect;fillColor2=none;strokeWidth=1;size=20;indent=5;fontSize=14;" vertex="1" parent="ToaOfZalFSrFew12trI2-13">
          <mxGeometry x="40" width="40" height="40" as="geometry" />
        </mxCell>
        <mxCell id="ToaOfZalFSrFew12trI2-50" value="" style="group;fontSize=14;" vertex="1" connectable="0" parent="1">
          <mxGeometry x="30" y="240" width="190" height="115" as="geometry" />
        </mxCell>
        <mxCell id="ToaOfZalFSrFew12trI2-6" value="" style="group;fontSize=14;" vertex="1" connectable="0" parent="ToaOfZalFSrFew12trI2-50">
          <mxGeometry x="10" width="80" height="40" as="geometry" />
        </mxCell>
        <mxCell id="ToaOfZalFSrFew12trI2-7" style="edgeStyle=orthogonalEdgeStyle;rounded=0;orthogonalLoop=1;jettySize=auto;html=1;fontSize=14;" edge="1" parent="ToaOfZalFSrFew12trI2-6" source="ToaOfZalFSrFew12trI2-8">
          <mxGeometry relative="1" as="geometry">
            <mxPoint x="20.000000000000057" y="80" as="targetPoint" />
          </mxGeometry>
        </mxCell>
        <mxCell id="ToaOfZalFSrFew12trI2-8" value="" style="verticalLabelPosition=bottom;verticalAlign=top;html=1;shape=mxgraph.basic.rect;fillColor2=none;strokeWidth=1;size=20;indent=5;fontSize=14;" vertex="1" parent="ToaOfZalFSrFew12trI2-6">
          <mxGeometry width="40" height="40" as="geometry" />
        </mxCell>
        <mxCell id="ToaOfZalFSrFew12trI2-9" style="edgeStyle=orthogonalEdgeStyle;rounded=0;orthogonalLoop=1;jettySize=auto;html=1;fontSize=14;" edge="1" parent="ToaOfZalFSrFew12trI2-6" source="ToaOfZalFSrFew12trI2-10">
          <mxGeometry relative="1" as="geometry">
            <mxPoint x="120" y="20" as="targetPoint" />
          </mxGeometry>
        </mxCell>
        <mxCell id="ToaOfZalFSrFew12trI2-10" value="" style="verticalLabelPosition=bottom;verticalAlign=top;html=1;shape=mxgraph.basic.rect;fillColor2=none;strokeWidth=1;size=20;indent=5;fontSize=14;" vertex="1" parent="ToaOfZalFSrFew12trI2-6">
          <mxGeometry x="40" width="40" height="40" as="geometry" />
        </mxCell>
        <mxCell id="ToaOfZalFSrFew12trI2-11" value="TOOL" style="text;html=1;strokeColor=none;fillColor=none;align=center;verticalAlign=middle;whiteSpace=wrap;rounded=0;fontSize=14;" vertex="1" parent="ToaOfZalFSrFew12trI2-50">
          <mxGeometry y="80" width="60" height="30" as="geometry" />
        </mxCell>
        <mxCell id="ToaOfZalFSrFew12trI2-12" value="Nil" style="text;html=1;strokeColor=none;fillColor=none;align=left;verticalAlign=middle;whiteSpace=wrap;rounded=0;fontSize=14;" vertex="1" parent="ToaOfZalFSrFew12trI2-50">
          <mxGeometry x="130" y="5" width="60" height="30" as="geometry" />
        </mxCell>
        <mxCell id="ToaOfZalFSrFew12trI2-51" value="Nil" style="text;html=1;strokeColor=none;fillColor=none;align=left;verticalAlign=middle;whiteSpace=wrap;rounded=0;fontSize=14;" vertex="1" parent="1">
          <mxGeometry x="360" y="165" width="60" height="30" as="geometry" />
        </mxCell>
        <mxCell id="ToaOfZalFSrFew12trI2-18" value="" style="group;fontSize=14;" vertex="1" connectable="0" parent="1">
          <mxGeometry x="200" y="240" width="80" height="40" as="geometry" />
        </mxCell>
        <mxCell id="ToaOfZalFSrFew12trI2-20" value="" style="verticalLabelPosition=bottom;verticalAlign=top;html=1;shape=mxgraph.basic.rect;fillColor2=none;strokeWidth=1;size=20;indent=5;fontSize=14;" vertex="1" parent="ToaOfZalFSrFew12trI2-18">
          <mxGeometry width="40" height="40" as="geometry" />
        </mxCell>
        <mxCell id="ToaOfZalFSrFew12trI2-21" style="edgeStyle=orthogonalEdgeStyle;rounded=0;orthogonalLoop=1;jettySize=auto;html=1;fontSize=14;" edge="1" parent="ToaOfZalFSrFew12trI2-18" source="ToaOfZalFSrFew12trI2-22">
          <mxGeometry relative="1" as="geometry">
            <mxPoint x="130" y="20" as="targetPoint" />
          </mxGeometry>
        </mxCell>
        <mxCell id="ToaOfZalFSrFew12trI2-22" value="" style="verticalLabelPosition=bottom;verticalAlign=top;html=1;shape=mxgraph.basic.rect;fillColor2=none;strokeWidth=1;size=20;indent=5;fontSize=14;" vertex="1" parent="ToaOfZalFSrFew12trI2-18">
          <mxGeometry x="40" width="40" height="40" as="geometry" />
        </mxCell>
        <mxCell id="ToaOfZalFSrFew12trI2-28" value="call" style="text;html=1;strokeColor=none;fillColor=none;align=center;verticalAlign=middle;whiteSpace=wrap;rounded=0;fontSize=14;" vertex="1" parent="1">
          <mxGeometry x="190" y="320" width="60" height="30" as="geometry" />
        </mxCell>
        <mxCell id="ToaOfZalFSrFew12trI2-30" value="Nil" style="text;html=1;strokeColor=none;fillColor=none;align=left;verticalAlign=middle;whiteSpace=wrap;rounded=0;fontSize=14;" vertex="1" parent="1">
          <mxGeometry x="330" y="245" width="60" height="30" as="geometry" />
        </mxCell>
        <mxCell id="AMUKBWynzDezWVSqplmy-2" style="edgeStyle=orthogonalEdgeStyle;rounded=0;orthogonalLoop=1;jettySize=auto;html=1;entryX=0.5;entryY=0;entryDx=0;entryDy=0;fontSize=14;" edge="1" parent="1" source="ToaOfZalFSrFew12trI2-20" target="ToaOfZalFSrFew12trI2-28">
          <mxGeometry relative="1" as="geometry" />
        </mxCell>
        <mxCell id="AMUKBWynzDezWVSqplmy-3" value="" style="group;fontSize=14;" vertex="1" connectable="0" parent="1">
          <mxGeometry x="40" y="80" width="80" height="40" as="geometry" />
        </mxCell>
        <mxCell id="AMUKBWynzDezWVSqplmy-4" style="edgeStyle=orthogonalEdgeStyle;rounded=0;orthogonalLoop=1;jettySize=auto;html=1;fontSize=14;" edge="1" parent="AMUKBWynzDezWVSqplmy-3" source="AMUKBWynzDezWVSqplmy-5">
          <mxGeometry relative="1" as="geometry">
            <mxPoint x="20.000000000000057" y="80" as="targetPoint" />
          </mxGeometry>
        </mxCell>
        <mxCell id="AMUKBWynzDezWVSqplmy-5" value="" style="verticalLabelPosition=bottom;verticalAlign=top;html=1;shape=mxgraph.basic.rect;fillColor2=none;strokeWidth=1;size=20;indent=5;fontSize=14;" vertex="1" parent="AMUKBWynzDezWVSqplmy-3">
          <mxGeometry width="40" height="40" as="geometry" />
        </mxCell>
        <mxCell id="AMUKBWynzDezWVSqplmy-7" value="" style="verticalLabelPosition=bottom;verticalAlign=top;html=1;shape=mxgraph.basic.rect;fillColor2=none;strokeWidth=1;size=20;indent=5;fontSize=14;" vertex="1" parent="AMUKBWynzDezWVSqplmy-3">
          <mxGeometry x="40" width="40" height="40" as="geometry" />
        </mxCell>
        <mxCell id="AMUKBWynzDezWVSqplmy-8" value="" style="group;fontSize=14;" vertex="1" connectable="0" parent="1">
          <mxGeometry x="390" y="160" width="80" height="40" as="geometry" />
        </mxCell>
        <mxCell id="AMUKBWynzDezWVSqplmy-9" style="edgeStyle=orthogonalEdgeStyle;rounded=0;orthogonalLoop=1;jettySize=auto;html=1;fontSize=14;" edge="1" parent="AMUKBWynzDezWVSqplmy-8" source="AMUKBWynzDezWVSqplmy-10">
          <mxGeometry relative="1" as="geometry">
            <mxPoint x="20.000000000000057" y="80" as="targetPoint" />
          </mxGeometry>
        </mxCell>
        <mxCell id="AMUKBWynzDezWVSqplmy-10" value="" style="verticalLabelPosition=bottom;verticalAlign=top;html=1;shape=mxgraph.basic.rect;fillColor2=none;strokeWidth=1;size=20;indent=5;fontSize=14;" vertex="1" parent="AMUKBWynzDezWVSqplmy-8">
          <mxGeometry width="40" height="40" as="geometry" />
        </mxCell>
        <mxCell id="AMUKBWynzDezWVSqplmy-11" style="edgeStyle=orthogonalEdgeStyle;rounded=0;orthogonalLoop=1;jettySize=auto;html=1;fontSize=14;" edge="1" parent="AMUKBWynzDezWVSqplmy-8" source="AMUKBWynzDezWVSqplmy-12">
          <mxGeometry relative="1" as="geometry">
            <mxPoint x="160" y="20" as="targetPoint" />
          </mxGeometry>
        </mxCell>
        <mxCell id="AMUKBWynzDezWVSqplmy-12" value="" style="verticalLabelPosition=bottom;verticalAlign=top;html=1;shape=mxgraph.basic.rect;fillColor2=none;strokeWidth=1;size=20;indent=5;fontSize=14;" vertex="1" parent="AMUKBWynzDezWVSqplmy-8">
          <mxGeometry x="40" width="40" height="40" as="geometry" />
        </mxCell>
        <mxCell id="AMUKBWynzDezWVSqplmy-13" value="" style="group;fontSize=14;" vertex="1" connectable="0" parent="1">
          <mxGeometry x="380" y="240" width="190" height="115" as="geometry" />
        </mxCell>
        <mxCell id="AMUKBWynzDezWVSqplmy-14" value="" style="group;fontSize=14;" vertex="1" connectable="0" parent="AMUKBWynzDezWVSqplmy-13">
          <mxGeometry x="10" width="80" height="40" as="geometry" />
        </mxCell>
        <mxCell id="AMUKBWynzDezWVSqplmy-15" style="edgeStyle=orthogonalEdgeStyle;rounded=0;orthogonalLoop=1;jettySize=auto;html=1;fontSize=14;" edge="1" parent="AMUKBWynzDezWVSqplmy-14" source="AMUKBWynzDezWVSqplmy-16">
          <mxGeometry relative="1" as="geometry">
            <mxPoint x="20.000000000000057" y="80" as="targetPoint" />
          </mxGeometry>
        </mxCell>
        <mxCell id="AMUKBWynzDezWVSqplmy-16" value="" style="verticalLabelPosition=bottom;verticalAlign=top;html=1;shape=mxgraph.basic.rect;fillColor2=none;strokeWidth=1;size=20;indent=5;fontSize=14;" vertex="1" parent="AMUKBWynzDezWVSqplmy-14">
          <mxGeometry width="40" height="40" as="geometry" />
        </mxCell>
        <mxCell id="AMUKBWynzDezWVSqplmy-17" style="edgeStyle=orthogonalEdgeStyle;rounded=0;orthogonalLoop=1;jettySize=auto;html=1;fontSize=14;" edge="1" parent="AMUKBWynzDezWVSqplmy-14" source="AMUKBWynzDezWVSqplmy-18">
          <mxGeometry relative="1" as="geometry">
            <mxPoint x="120" y="20" as="targetPoint" />
          </mxGeometry>
        </mxCell>
        <mxCell id="AMUKBWynzDezWVSqplmy-18" value="" style="verticalLabelPosition=bottom;verticalAlign=top;html=1;shape=mxgraph.basic.rect;fillColor2=none;strokeWidth=1;size=20;indent=5;fontSize=14;" vertex="1" parent="AMUKBWynzDezWVSqplmy-14">
          <mxGeometry x="40" width="40" height="40" as="geometry" />
        </mxCell>
        <mxCell id="AMUKBWynzDezWVSqplmy-19" value="sell" style="text;html=1;strokeColor=none;fillColor=none;align=center;verticalAlign=middle;whiteSpace=wrap;rounded=0;fontSize=14;" vertex="1" parent="AMUKBWynzDezWVSqplmy-13">
          <mxGeometry y="80" width="60" height="30" as="geometry" />
        </mxCell>
        <mxCell id="AMUKBWynzDezWVSqplmy-20" value="Nil" style="text;html=1;strokeColor=none;fillColor=none;align=left;verticalAlign=middle;whiteSpace=wrap;rounded=0;fontSize=14;" vertex="1" parent="AMUKBWynzDezWVSqplmy-13">
          <mxGeometry x="130" y="5" width="60" height="30" as="geometry" />
        </mxCell>
        <mxCell id="AMUKBWynzDezWVSqplmy-21" value="" style="group;fontSize=14;" vertex="1" connectable="0" parent="1">
          <mxGeometry x="390" y="80" width="80" height="40" as="geometry" />
        </mxCell>
        <mxCell id="AMUKBWynzDezWVSqplmy-22" style="edgeStyle=orthogonalEdgeStyle;rounded=0;orthogonalLoop=1;jettySize=auto;html=1;fontSize=14;" edge="1" parent="AMUKBWynzDezWVSqplmy-21" source="AMUKBWynzDezWVSqplmy-23">
          <mxGeometry relative="1" as="geometry">
            <mxPoint x="20.000000000000057" y="80" as="targetPoint" />
          </mxGeometry>
        </mxCell>
        <mxCell id="AMUKBWynzDezWVSqplmy-23" value="" style="verticalLabelPosition=bottom;verticalAlign=top;html=1;shape=mxgraph.basic.rect;fillColor2=none;strokeWidth=1;size=20;indent=5;fontSize=14;" vertex="1" parent="AMUKBWynzDezWVSqplmy-21">
          <mxGeometry width="40" height="40" as="geometry" />
        </mxCell>
        <mxCell id="AMUKBWynzDezWVSqplmy-24" style="edgeStyle=orthogonalEdgeStyle;rounded=0;orthogonalLoop=1;jettySize=auto;html=1;fontSize=14;" edge="1" parent="AMUKBWynzDezWVSqplmy-21" source="AMUKBWynzDezWVSqplmy-25">
          <mxGeometry relative="1" as="geometry">
            <mxPoint x="210" y="20" as="targetPoint" />
          </mxGeometry>
        </mxCell>
        <mxCell id="AMUKBWynzDezWVSqplmy-25" value="" style="verticalLabelPosition=bottom;verticalAlign=top;html=1;shape=mxgraph.basic.rect;fillColor2=none;strokeWidth=1;size=20;indent=5;fontSize=14;" vertex="1" parent="AMUKBWynzDezWVSqplmy-21">
          <mxGeometry x="40" width="40" height="40" as="geometry" />
        </mxCell>
        <mxCell id="AMUKBWynzDezWVSqplmy-6" style="edgeStyle=orthogonalEdgeStyle;rounded=0;orthogonalLoop=1;jettySize=auto;html=1;fontSize=14;" edge="1" parent="1" source="AMUKBWynzDezWVSqplmy-7">
          <mxGeometry relative="1" as="geometry">
            <mxPoint x="390" y="100" as="targetPoint" />
          </mxGeometry>
        </mxCell>
        <mxCell id="AMUKBWynzDezWVSqplmy-26" value="Nil" style="text;html=1;strokeColor=none;fillColor=none;align=left;verticalAlign=middle;whiteSpace=wrap;rounded=0;fontSize=14;" vertex="1" parent="1">
          <mxGeometry x="550" y="165" width="60" height="30" as="geometry" />
        </mxCell>
        <mxCell id="AMUKBWynzDezWVSqplmy-27" value="Nil" style="text;html=1;strokeColor=none;fillColor=none;align=left;verticalAlign=middle;whiteSpace=wrap;rounded=0;fontSize=14;" vertex="1" parent="1">
          <mxGeometry x="600" y="85" width="60" height="30" as="geometry" />
        </mxCell>
      </root>
    </mxGraphModel>
  </diagram>
  <diagram id="fO26nYKw7HlI_T09wZ-t" name="5.1">
    <mxGraphModel dx="1399" dy="889" grid="0" gridSize="10" guides="1" tooltips="1" connect="1" arrows="1" fold="1" page="1" pageScale="1" pageWidth="827" pageHeight="1169" math="0" shadow="0">
      <root>
        <mxCell id="0" />
        <mxCell id="1" parent="0" />
        <mxCell id="nRmwJCDFSYmLEE0sM4c0-1" value="" style="group;fontSize=14;" vertex="1" connectable="0" parent="1">
          <mxGeometry x="80" y="160" width="80" height="40" as="geometry" />
        </mxCell>
        <mxCell id="nRmwJCDFSYmLEE0sM4c0-2" style="edgeStyle=orthogonalEdgeStyle;rounded=0;orthogonalLoop=1;jettySize=auto;html=1;fontSize=14;" edge="1" parent="nRmwJCDFSYmLEE0sM4c0-1" source="nRmwJCDFSYmLEE0sM4c0-3">
          <mxGeometry relative="1" as="geometry">
            <mxPoint x="20.000000000000057" y="80" as="targetPoint" />
          </mxGeometry>
        </mxCell>
        <mxCell id="nRmwJCDFSYmLEE0sM4c0-3" value="" style="verticalLabelPosition=bottom;verticalAlign=top;html=1;shape=mxgraph.basic.rect;fillColor2=none;strokeWidth=1;size=20;indent=5;fontSize=14;" vertex="1" parent="nRmwJCDFSYmLEE0sM4c0-1">
          <mxGeometry width="40" height="40" as="geometry" />
        </mxCell>
        <mxCell id="nRmwJCDFSYmLEE0sM4c0-4" style="edgeStyle=orthogonalEdgeStyle;rounded=0;orthogonalLoop=1;jettySize=auto;html=1;fontSize=14;" edge="1" parent="nRmwJCDFSYmLEE0sM4c0-1" source="nRmwJCDFSYmLEE0sM4c0-5">
          <mxGeometry relative="1" as="geometry">
            <mxPoint x="120" y="20" as="targetPoint" />
          </mxGeometry>
        </mxCell>
        <mxCell id="nRmwJCDFSYmLEE0sM4c0-5" value="" style="verticalLabelPosition=bottom;verticalAlign=top;html=1;shape=mxgraph.basic.rect;fillColor2=none;strokeWidth=1;size=20;indent=5;fontSize=14;" vertex="1" parent="nRmwJCDFSYmLEE0sM4c0-1">
          <mxGeometry x="40" width="40" height="40" as="geometry" />
        </mxCell>
        <mxCell id="nRmwJCDFSYmLEE0sM4c0-6" value="" style="group;fontSize=14;" vertex="1" connectable="0" parent="1">
          <mxGeometry x="200" y="160" width="80" height="40" as="geometry" />
        </mxCell>
        <mxCell id="nRmwJCDFSYmLEE0sM4c0-7" style="edgeStyle=orthogonalEdgeStyle;rounded=0;orthogonalLoop=1;jettySize=auto;html=1;fontSize=14;" edge="1" parent="nRmwJCDFSYmLEE0sM4c0-6" source="nRmwJCDFSYmLEE0sM4c0-8">
          <mxGeometry relative="1" as="geometry">
            <mxPoint x="20.000000000000057" y="80" as="targetPoint" />
          </mxGeometry>
        </mxCell>
        <mxCell id="nRmwJCDFSYmLEE0sM4c0-8" value="" style="verticalLabelPosition=bottom;verticalAlign=top;html=1;shape=mxgraph.basic.rect;fillColor2=none;strokeWidth=1;size=20;indent=5;fontSize=14;" vertex="1" parent="nRmwJCDFSYmLEE0sM4c0-6">
          <mxGeometry width="40" height="40" as="geometry" />
        </mxCell>
        <mxCell id="nRmwJCDFSYmLEE0sM4c0-9" style="edgeStyle=orthogonalEdgeStyle;rounded=0;orthogonalLoop=1;jettySize=auto;html=1;fontSize=14;" edge="1" parent="nRmwJCDFSYmLEE0sM4c0-6" source="nRmwJCDFSYmLEE0sM4c0-10">
          <mxGeometry relative="1" as="geometry">
            <mxPoint x="120" y="20" as="targetPoint" />
          </mxGeometry>
        </mxCell>
        <mxCell id="nRmwJCDFSYmLEE0sM4c0-10" value="" style="verticalLabelPosition=bottom;verticalAlign=top;html=1;shape=mxgraph.basic.rect;fillColor2=none;strokeWidth=1;size=20;indent=5;fontSize=14;" vertex="1" parent="nRmwJCDFSYmLEE0sM4c0-6">
          <mxGeometry x="40" width="40" height="40" as="geometry" />
        </mxCell>
        <mxCell id="nRmwJCDFSYmLEE0sM4c0-11" value="ar1" style="text;html=1;strokeColor=none;fillColor=none;align=center;verticalAlign=middle;whiteSpace=wrap;rounded=0;fontSize=14;" vertex="1" parent="1">
          <mxGeometry x="70" y="240" width="60" height="30" as="geometry" />
        </mxCell>
        <mxCell id="nRmwJCDFSYmLEE0sM4c0-12" value="ar2" style="text;html=1;strokeColor=none;fillColor=none;align=center;verticalAlign=middle;whiteSpace=wrap;rounded=0;fontSize=14;" vertex="1" parent="1">
          <mxGeometry x="190" y="240" width="60" height="30" as="geometry" />
        </mxCell>
        <mxCell id="nRmwJCDFSYmLEE0sM4c0-13" value="Nil" style="text;html=1;strokeColor=none;fillColor=none;align=left;verticalAlign=middle;whiteSpace=wrap;rounded=0;fontSize=14;" vertex="1" parent="1">
          <mxGeometry x="320" y="165" width="60" height="30" as="geometry" />
        </mxCell>
        <mxCell id="nRmwJCDFSYmLEE0sM4c0-14" value="" style="group;fontSize=14;" vertex="1" connectable="0" parent="1">
          <mxGeometry x="360" y="160" width="80" height="40" as="geometry" />
        </mxCell>
        <mxCell id="nRmwJCDFSYmLEE0sM4c0-15" style="edgeStyle=orthogonalEdgeStyle;rounded=0;orthogonalLoop=1;jettySize=auto;html=1;fontSize=14;" edge="1" parent="nRmwJCDFSYmLEE0sM4c0-14" source="nRmwJCDFSYmLEE0sM4c0-16">
          <mxGeometry relative="1" as="geometry">
            <mxPoint x="20.000000000000057" y="80" as="targetPoint" />
          </mxGeometry>
        </mxCell>
        <mxCell id="nRmwJCDFSYmLEE0sM4c0-16" value="" style="verticalLabelPosition=bottom;verticalAlign=top;html=1;shape=mxgraph.basic.rect;fillColor2=none;strokeWidth=1;size=20;indent=5;fontSize=14;" vertex="1" parent="nRmwJCDFSYmLEE0sM4c0-14">
          <mxGeometry width="40" height="40" as="geometry" />
        </mxCell>
        <mxCell id="nRmwJCDFSYmLEE0sM4c0-17" style="edgeStyle=orthogonalEdgeStyle;rounded=0;orthogonalLoop=1;jettySize=auto;html=1;fontSize=14;" edge="1" parent="nRmwJCDFSYmLEE0sM4c0-14" source="nRmwJCDFSYmLEE0sM4c0-18">
          <mxGeometry relative="1" as="geometry">
            <mxPoint x="120" y="20" as="targetPoint" />
          </mxGeometry>
        </mxCell>
        <mxCell id="nRmwJCDFSYmLEE0sM4c0-18" value="" style="verticalLabelPosition=bottom;verticalAlign=top;html=1;shape=mxgraph.basic.rect;fillColor2=none;strokeWidth=1;size=20;indent=5;fontSize=14;" vertex="1" parent="nRmwJCDFSYmLEE0sM4c0-14">
          <mxGeometry x="40" width="40" height="40" as="geometry" />
        </mxCell>
        <mxCell id="nRmwJCDFSYmLEE0sM4c0-19" value="" style="group;fontSize=14;" vertex="1" connectable="0" parent="1">
          <mxGeometry x="480" y="160" width="80" height="40" as="geometry" />
        </mxCell>
        <mxCell id="nRmwJCDFSYmLEE0sM4c0-20" style="edgeStyle=orthogonalEdgeStyle;rounded=0;orthogonalLoop=1;jettySize=auto;html=1;fontSize=14;" edge="1" parent="nRmwJCDFSYmLEE0sM4c0-19" source="nRmwJCDFSYmLEE0sM4c0-21">
          <mxGeometry relative="1" as="geometry">
            <mxPoint x="20.000000000000057" y="80" as="targetPoint" />
          </mxGeometry>
        </mxCell>
        <mxCell id="nRmwJCDFSYmLEE0sM4c0-21" value="" style="verticalLabelPosition=bottom;verticalAlign=top;html=1;shape=mxgraph.basic.rect;fillColor2=none;strokeWidth=1;size=20;indent=5;fontSize=14;" vertex="1" parent="nRmwJCDFSYmLEE0sM4c0-19">
          <mxGeometry width="40" height="40" as="geometry" />
        </mxCell>
        <mxCell id="nRmwJCDFSYmLEE0sM4c0-22" style="edgeStyle=orthogonalEdgeStyle;rounded=0;orthogonalLoop=1;jettySize=auto;html=1;fontSize=14;" edge="1" parent="nRmwJCDFSYmLEE0sM4c0-19" source="nRmwJCDFSYmLEE0sM4c0-23">
          <mxGeometry relative="1" as="geometry">
            <mxPoint x="120" y="20" as="targetPoint" />
          </mxGeometry>
        </mxCell>
        <mxCell id="nRmwJCDFSYmLEE0sM4c0-23" value="" style="verticalLabelPosition=bottom;verticalAlign=top;html=1;shape=mxgraph.basic.rect;fillColor2=none;strokeWidth=1;size=20;indent=5;fontSize=14;" vertex="1" parent="nRmwJCDFSYmLEE0sM4c0-19">
          <mxGeometry x="40" width="40" height="40" as="geometry" />
        </mxCell>
        <mxCell id="nRmwJCDFSYmLEE0sM4c0-24" value="ar3" style="text;html=1;strokeColor=none;fillColor=none;align=center;verticalAlign=middle;whiteSpace=wrap;rounded=0;fontSize=14;" vertex="1" parent="1">
          <mxGeometry x="350" y="240" width="60" height="30" as="geometry" />
        </mxCell>
        <mxCell id="nRmwJCDFSYmLEE0sM4c0-25" value="ar4" style="text;html=1;strokeColor=none;fillColor=none;align=center;verticalAlign=middle;whiteSpace=wrap;rounded=0;fontSize=14;" vertex="1" parent="1">
          <mxGeometry x="470" y="240" width="60" height="30" as="geometry" />
        </mxCell>
        <mxCell id="nRmwJCDFSYmLEE0sM4c0-26" value="Nil" style="text;html=1;strokeColor=none;fillColor=none;align=left;verticalAlign=middle;whiteSpace=wrap;rounded=0;fontSize=14;" vertex="1" parent="1">
          <mxGeometry x="600" y="165" width="60" height="30" as="geometry" />
        </mxCell>
        <mxCell id="nRmwJCDFSYmLEE0sM4c0-27" value="" style="group;fontSize=14;" vertex="1" connectable="0" parent="1">
          <mxGeometry x="80" y="80" width="80" height="40" as="geometry" />
        </mxCell>
        <mxCell id="nRmwJCDFSYmLEE0sM4c0-28" style="edgeStyle=orthogonalEdgeStyle;rounded=0;orthogonalLoop=1;jettySize=auto;html=1;fontSize=14;" edge="1" parent="nRmwJCDFSYmLEE0sM4c0-27" source="nRmwJCDFSYmLEE0sM4c0-29">
          <mxGeometry relative="1" as="geometry">
            <mxPoint x="20.000000000000057" y="80" as="targetPoint" />
          </mxGeometry>
        </mxCell>
        <mxCell id="nRmwJCDFSYmLEE0sM4c0-29" value="" style="verticalLabelPosition=bottom;verticalAlign=top;html=1;shape=mxgraph.basic.rect;fillColor2=none;strokeWidth=1;size=20;indent=5;fontSize=14;" vertex="1" parent="nRmwJCDFSYmLEE0sM4c0-27">
          <mxGeometry width="40" height="40" as="geometry" />
        </mxCell>
        <mxCell id="nRmwJCDFSYmLEE0sM4c0-31" value="" style="verticalLabelPosition=bottom;verticalAlign=top;html=1;shape=mxgraph.basic.rect;fillColor2=none;strokeWidth=1;size=20;indent=5;fontSize=14;" vertex="1" parent="nRmwJCDFSYmLEE0sM4c0-27">
          <mxGeometry x="40" width="40" height="40" as="geometry" />
        </mxCell>
        <mxCell id="nRmwJCDFSYmLEE0sM4c0-32" value="" style="group;fontSize=14;" vertex="1" connectable="0" parent="1">
          <mxGeometry x="360" y="80" width="80" height="40" as="geometry" />
        </mxCell>
        <mxCell id="nRmwJCDFSYmLEE0sM4c0-33" style="edgeStyle=orthogonalEdgeStyle;rounded=0;orthogonalLoop=1;jettySize=auto;html=1;fontSize=14;" edge="1" parent="nRmwJCDFSYmLEE0sM4c0-32" source="nRmwJCDFSYmLEE0sM4c0-34">
          <mxGeometry relative="1" as="geometry">
            <mxPoint x="20.000000000000057" y="80" as="targetPoint" />
          </mxGeometry>
        </mxCell>
        <mxCell id="nRmwJCDFSYmLEE0sM4c0-34" value="" style="verticalLabelPosition=bottom;verticalAlign=top;html=1;shape=mxgraph.basic.rect;fillColor2=none;strokeWidth=1;size=20;indent=5;fontSize=14;" vertex="1" parent="nRmwJCDFSYmLEE0sM4c0-32">
          <mxGeometry width="40" height="40" as="geometry" />
        </mxCell>
        <mxCell id="nRmwJCDFSYmLEE0sM4c0-35" style="edgeStyle=orthogonalEdgeStyle;rounded=0;orthogonalLoop=1;jettySize=auto;html=1;fontSize=14;" edge="1" parent="nRmwJCDFSYmLEE0sM4c0-32" source="nRmwJCDFSYmLEE0sM4c0-36">
          <mxGeometry relative="1" as="geometry">
            <mxPoint x="280" y="20" as="targetPoint" />
          </mxGeometry>
        </mxCell>
        <mxCell id="nRmwJCDFSYmLEE0sM4c0-36" value="" style="verticalLabelPosition=bottom;verticalAlign=top;html=1;shape=mxgraph.basic.rect;fillColor2=none;strokeWidth=1;size=20;indent=5;fontSize=14;" vertex="1" parent="nRmwJCDFSYmLEE0sM4c0-32">
          <mxGeometry x="40" width="40" height="40" as="geometry" />
        </mxCell>
        <mxCell id="nRmwJCDFSYmLEE0sM4c0-30" style="edgeStyle=orthogonalEdgeStyle;rounded=0;orthogonalLoop=1;jettySize=auto;html=1;fontSize=14;entryX=-0.08;entryY=0.516;entryDx=0;entryDy=0;entryPerimeter=0;" edge="1" parent="1" source="nRmwJCDFSYmLEE0sM4c0-31" target="nRmwJCDFSYmLEE0sM4c0-34">
          <mxGeometry relative="1" as="geometry">
            <mxPoint x="200" y="100" as="targetPoint" />
          </mxGeometry>
        </mxCell>
        <mxCell id="nRmwJCDFSYmLEE0sM4c0-37" value="Nil" style="text;html=1;strokeColor=none;fillColor=none;align=left;verticalAlign=middle;whiteSpace=wrap;rounded=0;fontSize=14;" vertex="1" parent="1">
          <mxGeometry x="640" y="85" width="60" height="30" as="geometry" />
        </mxCell>
      </root>
    </mxGraphModel>
  </diagram>
  <diagram id="rtOlJHKyKEIehLykaPoK" name="5.2">
    <mxGraphModel dx="1119" dy="711" grid="0" gridSize="10" guides="1" tooltips="1" connect="1" arrows="1" fold="1" page="1" pageScale="1" pageWidth="827" pageHeight="1169" math="0" shadow="0">
      <root>
        <mxCell id="0" />
        <mxCell id="1" parent="0" />
        <mxCell id="gBWHyeqC4DXAr9ifckJL-1" value="" style="group;fontSize=14;" vertex="1" connectable="0" parent="1">
          <mxGeometry x="90" y="40" width="80" height="40" as="geometry" />
        </mxCell>
        <mxCell id="gBWHyeqC4DXAr9ifckJL-2" style="edgeStyle=orthogonalEdgeStyle;rounded=0;orthogonalLoop=1;jettySize=auto;html=1;fontSize=14;" edge="1" parent="gBWHyeqC4DXAr9ifckJL-1" source="gBWHyeqC4DXAr9ifckJL-3">
          <mxGeometry relative="1" as="geometry">
            <mxPoint x="20.000000000000057" y="80" as="targetPoint" />
          </mxGeometry>
        </mxCell>
        <mxCell id="gBWHyeqC4DXAr9ifckJL-3" value="" style="verticalLabelPosition=bottom;verticalAlign=top;html=1;shape=mxgraph.basic.rect;fillColor2=none;strokeWidth=1;size=20;indent=5;fontSize=14;" vertex="1" parent="gBWHyeqC4DXAr9ifckJL-1">
          <mxGeometry width="40" height="40" as="geometry" />
        </mxCell>
        <mxCell id="gBWHyeqC4DXAr9ifckJL-4" style="edgeStyle=orthogonalEdgeStyle;rounded=0;orthogonalLoop=1;jettySize=auto;html=1;fontSize=14;" edge="1" parent="gBWHyeqC4DXAr9ifckJL-1" source="gBWHyeqC4DXAr9ifckJL-5">
          <mxGeometry relative="1" as="geometry">
            <mxPoint x="160" y="20" as="targetPoint" />
          </mxGeometry>
        </mxCell>
        <mxCell id="gBWHyeqC4DXAr9ifckJL-5" value="" style="verticalLabelPosition=bottom;verticalAlign=top;html=1;shape=mxgraph.basic.rect;fillColor2=none;strokeWidth=1;size=20;indent=5;fontSize=14;" vertex="1" parent="gBWHyeqC4DXAr9ifckJL-1">
          <mxGeometry x="40" width="40" height="40" as="geometry" />
        </mxCell>
        <mxCell id="gBWHyeqC4DXAr9ifckJL-6" value="ar1" style="text;html=1;strokeColor=none;fillColor=none;align=center;verticalAlign=middle;whiteSpace=wrap;rounded=0;fontSize=14;" vertex="1" parent="1">
          <mxGeometry x="80" y="200" width="60" height="30" as="geometry" />
        </mxCell>
        <mxCell id="gBWHyeqC4DXAr9ifckJL-7" value="" style="group;fontSize=14;" vertex="1" connectable="0" parent="1">
          <mxGeometry x="90" y="120" width="80" height="40" as="geometry" />
        </mxCell>
        <mxCell id="gBWHyeqC4DXAr9ifckJL-8" style="edgeStyle=orthogonalEdgeStyle;rounded=0;orthogonalLoop=1;jettySize=auto;html=1;fontSize=14;" edge="1" parent="gBWHyeqC4DXAr9ifckJL-7" source="gBWHyeqC4DXAr9ifckJL-9">
          <mxGeometry relative="1" as="geometry">
            <mxPoint x="20.000000000000057" y="80" as="targetPoint" />
          </mxGeometry>
        </mxCell>
        <mxCell id="gBWHyeqC4DXAr9ifckJL-9" value="" style="verticalLabelPosition=bottom;verticalAlign=top;html=1;shape=mxgraph.basic.rect;fillColor2=none;strokeWidth=1;size=20;indent=5;fontSize=14;" vertex="1" parent="gBWHyeqC4DXAr9ifckJL-7">
          <mxGeometry width="40" height="40" as="geometry" />
        </mxCell>
        <mxCell id="gBWHyeqC4DXAr9ifckJL-10" style="edgeStyle=orthogonalEdgeStyle;rounded=0;orthogonalLoop=1;jettySize=auto;html=1;fontSize=14;" edge="1" parent="gBWHyeqC4DXAr9ifckJL-7" source="gBWHyeqC4DXAr9ifckJL-11">
          <mxGeometry relative="1" as="geometry">
            <mxPoint x="120" y="20" as="targetPoint" />
          </mxGeometry>
        </mxCell>
        <mxCell id="gBWHyeqC4DXAr9ifckJL-11" value="" style="verticalLabelPosition=bottom;verticalAlign=top;html=1;shape=mxgraph.basic.rect;fillColor2=none;strokeWidth=1;size=20;indent=5;fontSize=14;" vertex="1" parent="gBWHyeqC4DXAr9ifckJL-7">
          <mxGeometry x="40" width="40" height="40" as="geometry" />
        </mxCell>
        <mxCell id="gBWHyeqC4DXAr9ifckJL-12" value="Nil" style="text;html=1;strokeColor=none;fillColor=none;align=left;verticalAlign=middle;whiteSpace=wrap;rounded=0;fontSize=14;" vertex="1" parent="1">
          <mxGeometry x="210" y="125" width="60" height="30" as="geometry" />
        </mxCell>
        <mxCell id="gBWHyeqC4DXAr9ifckJL-13" value="" style="group;fontSize=14;" vertex="1" connectable="0" parent="1">
          <mxGeometry x="250" y="40" width="80" height="40" as="geometry" />
        </mxCell>
        <mxCell id="gBWHyeqC4DXAr9ifckJL-14" style="edgeStyle=orthogonalEdgeStyle;rounded=0;orthogonalLoop=1;jettySize=auto;html=1;fontSize=14;" edge="1" parent="gBWHyeqC4DXAr9ifckJL-13" source="gBWHyeqC4DXAr9ifckJL-15">
          <mxGeometry relative="1" as="geometry">
            <mxPoint x="20.000000000000057" y="80" as="targetPoint" />
          </mxGeometry>
        </mxCell>
        <mxCell id="gBWHyeqC4DXAr9ifckJL-15" value="" style="verticalLabelPosition=bottom;verticalAlign=top;html=1;shape=mxgraph.basic.rect;fillColor2=none;strokeWidth=1;size=20;indent=5;fontSize=14;" vertex="1" parent="gBWHyeqC4DXAr9ifckJL-13">
          <mxGeometry width="40" height="40" as="geometry" />
        </mxCell>
        <mxCell id="gBWHyeqC4DXAr9ifckJL-16" style="edgeStyle=orthogonalEdgeStyle;rounded=0;orthogonalLoop=1;jettySize=auto;html=1;fontSize=14;" edge="1" parent="gBWHyeqC4DXAr9ifckJL-13" source="gBWHyeqC4DXAr9ifckJL-17">
          <mxGeometry relative="1" as="geometry">
            <mxPoint x="160" y="20" as="targetPoint" />
          </mxGeometry>
        </mxCell>
        <mxCell id="gBWHyeqC4DXAr9ifckJL-17" value="" style="verticalLabelPosition=bottom;verticalAlign=top;html=1;shape=mxgraph.basic.rect;fillColor2=none;strokeWidth=1;size=20;indent=5;fontSize=14;" vertex="1" parent="gBWHyeqC4DXAr9ifckJL-13">
          <mxGeometry x="40" width="40" height="40" as="geometry" />
        </mxCell>
        <mxCell id="gBWHyeqC4DXAr9ifckJL-18" value="ar2" style="text;html=1;strokeColor=none;fillColor=none;align=center;verticalAlign=middle;whiteSpace=wrap;rounded=0;fontSize=14;" vertex="1" parent="1">
          <mxGeometry x="240" y="200" width="60" height="30" as="geometry" />
        </mxCell>
        <mxCell id="gBWHyeqC4DXAr9ifckJL-19" value="" style="group;fontSize=14;" vertex="1" connectable="0" parent="1">
          <mxGeometry x="250" y="120" width="80" height="40" as="geometry" />
        </mxCell>
        <mxCell id="gBWHyeqC4DXAr9ifckJL-20" style="edgeStyle=orthogonalEdgeStyle;rounded=0;orthogonalLoop=1;jettySize=auto;html=1;fontSize=14;" edge="1" parent="gBWHyeqC4DXAr9ifckJL-19" source="gBWHyeqC4DXAr9ifckJL-21">
          <mxGeometry relative="1" as="geometry">
            <mxPoint x="20.000000000000057" y="80" as="targetPoint" />
          </mxGeometry>
        </mxCell>
        <mxCell id="gBWHyeqC4DXAr9ifckJL-21" value="" style="verticalLabelPosition=bottom;verticalAlign=top;html=1;shape=mxgraph.basic.rect;fillColor2=none;strokeWidth=1;size=20;indent=5;fontSize=14;" vertex="1" parent="gBWHyeqC4DXAr9ifckJL-19">
          <mxGeometry width="40" height="40" as="geometry" />
        </mxCell>
        <mxCell id="gBWHyeqC4DXAr9ifckJL-22" style="edgeStyle=orthogonalEdgeStyle;rounded=0;orthogonalLoop=1;jettySize=auto;html=1;fontSize=14;" edge="1" parent="gBWHyeqC4DXAr9ifckJL-19" source="gBWHyeqC4DXAr9ifckJL-23">
          <mxGeometry relative="1" as="geometry">
            <mxPoint x="120" y="20" as="targetPoint" />
          </mxGeometry>
        </mxCell>
        <mxCell id="gBWHyeqC4DXAr9ifckJL-23" value="" style="verticalLabelPosition=bottom;verticalAlign=top;html=1;shape=mxgraph.basic.rect;fillColor2=none;strokeWidth=1;size=20;indent=5;fontSize=14;" vertex="1" parent="gBWHyeqC4DXAr9ifckJL-19">
          <mxGeometry x="40" width="40" height="40" as="geometry" />
        </mxCell>
        <mxCell id="gBWHyeqC4DXAr9ifckJL-24" value="Nil" style="text;html=1;strokeColor=none;fillColor=none;align=left;verticalAlign=middle;whiteSpace=wrap;rounded=0;fontSize=14;" vertex="1" parent="1">
          <mxGeometry x="370" y="125" width="60" height="30" as="geometry" />
        </mxCell>
        <mxCell id="gBWHyeqC4DXAr9ifckJL-25" value="Nil" style="text;html=1;strokeColor=none;fillColor=none;align=left;verticalAlign=middle;whiteSpace=wrap;rounded=0;fontSize=14;" vertex="1" parent="1">
          <mxGeometry x="410" y="45" width="60" height="30" as="geometry" />
        </mxCell>
      </root>
    </mxGraphModel>
  </diagram>
  <diagram id="UDQwwxJBG7oxOuyVUBid" name="5.3">
    <mxGraphModel dx="492" dy="682" grid="0" gridSize="10" guides="1" tooltips="1" connect="1" arrows="1" fold="1" page="1" pageScale="1" pageWidth="827" pageHeight="1169" math="0" shadow="0">
      <root>
        <mxCell id="0" />
        <mxCell id="1" parent="0" />
        <mxCell id="z59e3URuF6YLzxjvD5ic-1" value="" style="group;fontSize=14;" parent="1" vertex="1" connectable="0">
          <mxGeometry x="80" y="160" width="80" height="40" as="geometry" />
        </mxCell>
        <mxCell id="z59e3URuF6YLzxjvD5ic-2" style="edgeStyle=orthogonalEdgeStyle;rounded=0;orthogonalLoop=1;jettySize=auto;html=1;fontSize=14;" parent="z59e3URuF6YLzxjvD5ic-1" source="z59e3URuF6YLzxjvD5ic-3" edge="1">
          <mxGeometry relative="1" as="geometry">
            <mxPoint x="20.000000000000057" y="80" as="targetPoint" />
          </mxGeometry>
        </mxCell>
        <mxCell id="z59e3URuF6YLzxjvD5ic-3" value="" style="verticalLabelPosition=bottom;verticalAlign=top;html=1;shape=mxgraph.basic.rect;fillColor2=none;strokeWidth=1;size=20;indent=5;fontSize=14;" parent="z59e3URuF6YLzxjvD5ic-1" vertex="1">
          <mxGeometry width="40" height="40" as="geometry" />
        </mxCell>
        <mxCell id="z59e3URuF6YLzxjvD5ic-4" style="edgeStyle=orthogonalEdgeStyle;rounded=0;orthogonalLoop=1;jettySize=auto;html=1;fontSize=14;" parent="z59e3URuF6YLzxjvD5ic-1" source="z59e3URuF6YLzxjvD5ic-5" edge="1">
          <mxGeometry relative="1" as="geometry">
            <mxPoint x="160" y="20" as="targetPoint" />
          </mxGeometry>
        </mxCell>
        <mxCell id="z59e3URuF6YLzxjvD5ic-5" value="" style="verticalLabelPosition=bottom;verticalAlign=top;html=1;shape=mxgraph.basic.rect;fillColor2=none;strokeWidth=1;size=20;indent=5;fontSize=14;" parent="z59e3URuF6YLzxjvD5ic-1" vertex="1">
          <mxGeometry x="40" width="40" height="40" as="geometry" />
        </mxCell>
        <mxCell id="z59e3URuF6YLzxjvD5ic-6" value="ar1" style="text;html=1;strokeColor=none;fillColor=none;align=center;verticalAlign=middle;whiteSpace=wrap;rounded=0;fontSize=14;" parent="1" vertex="1">
          <mxGeometry x="70" y="320" width="60" height="30" as="geometry" />
        </mxCell>
        <mxCell id="z59e3URuF6YLzxjvD5ic-7" value="" style="group;fontSize=14;" parent="1" vertex="1" connectable="0">
          <mxGeometry x="80" y="240" width="80" height="40" as="geometry" />
        </mxCell>
        <mxCell id="z59e3URuF6YLzxjvD5ic-8" style="edgeStyle=orthogonalEdgeStyle;rounded=0;orthogonalLoop=1;jettySize=auto;html=1;fontSize=14;" parent="z59e3URuF6YLzxjvD5ic-7" source="z59e3URuF6YLzxjvD5ic-9" edge="1">
          <mxGeometry relative="1" as="geometry">
            <mxPoint x="20.000000000000057" y="80" as="targetPoint" />
          </mxGeometry>
        </mxCell>
        <mxCell id="z59e3URuF6YLzxjvD5ic-9" value="" style="verticalLabelPosition=bottom;verticalAlign=top;html=1;shape=mxgraph.basic.rect;fillColor2=none;strokeWidth=1;size=20;indent=5;fontSize=14;" parent="z59e3URuF6YLzxjvD5ic-7" vertex="1">
          <mxGeometry width="40" height="40" as="geometry" />
        </mxCell>
        <mxCell id="z59e3URuF6YLzxjvD5ic-10" style="edgeStyle=orthogonalEdgeStyle;rounded=0;orthogonalLoop=1;jettySize=auto;html=1;fontSize=14;" parent="z59e3URuF6YLzxjvD5ic-7" source="z59e3URuF6YLzxjvD5ic-11" edge="1">
          <mxGeometry relative="1" as="geometry">
            <mxPoint x="120" y="20" as="targetPoint" />
          </mxGeometry>
        </mxCell>
        <mxCell id="z59e3URuF6YLzxjvD5ic-11" value="" style="verticalLabelPosition=bottom;verticalAlign=top;html=1;shape=mxgraph.basic.rect;fillColor2=none;strokeWidth=1;size=20;indent=5;fontSize=14;" parent="z59e3URuF6YLzxjvD5ic-7" vertex="1">
          <mxGeometry x="40" width="40" height="40" as="geometry" />
        </mxCell>
        <mxCell id="z59e3URuF6YLzxjvD5ic-12" value="Nil" style="text;html=1;strokeColor=none;fillColor=none;align=left;verticalAlign=middle;whiteSpace=wrap;rounded=0;fontSize=14;" parent="1" vertex="1">
          <mxGeometry x="240" y="165" width="60" height="30" as="geometry" />
        </mxCell>
        <mxCell id="z59e3URuF6YLzxjvD5ic-25" value="" style="group;fontSize=14;" parent="1" vertex="1" connectable="0">
          <mxGeometry x="80" y="80" width="80" height="40" as="geometry" />
        </mxCell>
        <mxCell id="z59e3URuF6YLzxjvD5ic-26" style="edgeStyle=orthogonalEdgeStyle;rounded=0;orthogonalLoop=1;jettySize=auto;html=1;fontSize=14;" parent="z59e3URuF6YLzxjvD5ic-25" source="z59e3URuF6YLzxjvD5ic-27" edge="1">
          <mxGeometry relative="1" as="geometry">
            <mxPoint x="20.000000000000057" y="80" as="targetPoint" />
          </mxGeometry>
        </mxCell>
        <mxCell id="z59e3URuF6YLzxjvD5ic-27" value="" style="verticalLabelPosition=bottom;verticalAlign=top;html=1;shape=mxgraph.basic.rect;fillColor2=none;strokeWidth=1;size=20;indent=5;fontSize=14;" parent="z59e3URuF6YLzxjvD5ic-25" vertex="1">
          <mxGeometry width="40" height="40" as="geometry" />
        </mxCell>
        <mxCell id="z59e3URuF6YLzxjvD5ic-28" style="edgeStyle=orthogonalEdgeStyle;rounded=0;orthogonalLoop=1;jettySize=auto;html=1;fontSize=14;" parent="z59e3URuF6YLzxjvD5ic-25" source="z59e3URuF6YLzxjvD5ic-29" edge="1">
          <mxGeometry relative="1" as="geometry">
            <mxPoint x="200" y="20" as="targetPoint" />
          </mxGeometry>
        </mxCell>
        <mxCell id="z59e3URuF6YLzxjvD5ic-29" value="" style="verticalLabelPosition=bottom;verticalAlign=top;html=1;shape=mxgraph.basic.rect;fillColor2=none;strokeWidth=1;size=20;indent=5;fontSize=14;" parent="z59e3URuF6YLzxjvD5ic-25" vertex="1">
          <mxGeometry x="40" width="40" height="40" as="geometry" />
        </mxCell>
        <mxCell id="z59e3URuF6YLzxjvD5ic-30" value="Nil" style="text;html=1;strokeColor=none;fillColor=none;align=left;verticalAlign=middle;whiteSpace=wrap;rounded=0;fontSize=14;" parent="1" vertex="1">
          <mxGeometry x="280" y="85" width="60" height="30" as="geometry" />
        </mxCell>
        <mxCell id="iA0ZrTaNfi8cFO4KnWNX-1" value="Nil" style="text;html=1;strokeColor=none;fillColor=none;align=left;verticalAlign=middle;whiteSpace=wrap;rounded=0;fontSize=14;" vertex="1" parent="1">
          <mxGeometry x="201" y="245" width="60" height="30" as="geometry" />
        </mxCell>
      </root>
    </mxGraphModel>
  </diagram>
</mxfile>
